<svg width="30" height="38" viewBox="0 0 30 38" fill="none" xmlns="http://www.w3.org/2000/svg">
<path d="M15.3997 27.5002C15.6997 28.0002 15.8997 28.3002 15.9997 28.6002C17.1997 31.1002 18.2997 33.7002 19.4997 36.2002C20.1997 37.7002 21.5997 38.1002 22.6997 37.2002C23.7997 36.4002 23.5997 35.3002 23.0997 34.2002C20.8997 28.6002 17.8997 23.2002 17.8997 16.9002C17.8997 15.2002 17.8997 14.9002 19.5997 14.4002C22.1997 13.6002 24.8997 12.8002 27.4997 12.0002C28.9997 11.5002 29.5998 10.5002 29.2998 9.2002C28.9998 8.1002 27.7998 7.6002 26.2998 8.1002C24.1998 8.7002 22.0997 9.40019 19.8997 9.90019C18.0997 10.3002 16.0998 10.8002 14.2998 10.6002C10.8998 10.1002 7.59965 9.10019 4.19965 8.2002C2.59965 7.8002 1.39968 8.2002 1.09968 9.3002C0.699678 10.7002 1.2997 11.6002 2.9997 12.1002C5.6997 12.9002 8.2997 13.7002 10.9997 14.5002C11.8997 14.8002 12.5997 15.1002 12.4997 16.2002C12.2997 19.1002 12.1997 22.0002 11.0997 24.7002C9.79968 28.0002 8.49965 31.3002 7.19965 34.6002C6.69965 35.9002 7.09965 37.0002 8.19965 37.5002C9.29965 38.0002 10.1997 37.6002 10.8997 36.3002C11.4997 35.1002 12.0997 33.9002 12.6997 32.7002C13.5997 31.1002 14.4997 29.4002 15.3997 27.5002ZM15.4997 8.40019C17.6997 8.40019 19.4997 6.5002 19.4997 4.3002C19.4997 2.1002 17.5997 0.200195 15.3997 0.200195C13.0997 0.200195 11.2998 2.10019 11.2998 4.40019C11.3998 6.60019 13.1997 8.40019 15.4997 8.40019Z" fill="black"/>
<path d="M15.3994 27.5004C14.4994 29.4004 13.5994 31.1004 12.7994 32.8004C12.1994 34.0004 11.5993 35.2004 10.9993 36.4004C10.3993 37.7004 9.39939 38.1004 8.29939 37.6004C7.09939 37.1004 6.69939 36.0004 7.29939 34.7004C8.59939 31.4004 9.89929 28.1004 11.1993 24.8004C12.2993 22.1004 12.3993 19.2004 12.5993 16.3004C12.6993 15.2004 11.9993 14.8004 11.0993 14.6004C8.39931 13.8004 5.79931 13.0004 3.09931 12.2004C1.39931 11.7004 0.799287 10.8004 1.19929 9.40042C1.49929 8.30042 2.69939 7.90043 4.29939 8.30043C7.59939 9.10043 10.9994 10.2004 14.3994 10.7004C16.1994 11.0004 18.1993 10.4004 19.9993 10.0004C22.1993 9.50043 24.2994 8.80043 26.3994 8.20043C27.7994 7.80043 29.0994 8.20043 29.3994 9.30043C29.7994 10.6004 29.0993 11.6004 27.5993 12.1004C24.9993 12.9004 22.2993 13.7004 19.6993 14.5004C17.9993 15.0004 17.9993 15.3004 17.9993 17.0004C17.9993 23.3004 20.9993 28.7004 23.1993 34.3004C23.5993 35.4004 23.8994 36.5004 22.7994 37.3004C21.5994 38.2004 20.2993 37.8004 19.5993 36.3004C18.3993 33.8004 17.1993 31.2004 16.0993 28.7004C15.8993 28.3004 15.6994 28.0004 15.3994 27.5004Z" fill="black"/>
<path d="M15.4994 8.40019C13.1994 8.40019 11.3994 6.70019 11.3994 4.40019C11.3994 2.10019 13.1994 0.200195 15.4994 0.200195C17.6994 0.200195 19.5994 2.0002 19.5994 4.3002C19.4994 6.5002 17.6994 8.30019 15.4994 8.40019Z" fill="black"/>
</svg>
