<svg width="151" height="124" viewBox="0 0 151 124" fill="none" xmlns="http://www.w3.org/2000/svg">
<path d="M0.200195 8.7002C0.200195 4.0002 2.9002 0.200195 8.9002 0.200195C14.8002 0.200195 17.6002 4.0002 17.6002 8.7002V25.7002C17.6002 30.4002 14.9002 34.2002 8.9002 34.2002C3.0002 34.2002 0.200195 30.4002 0.200195 25.7002V8.7002ZM5.9002 25.5002C5.9002 28.0002 6.6002 29.2002 8.9002 29.2002C11.2002 29.2002 11.9002 28.0002 11.9002 25.5002V8.80029C11.9002 6.30029 11.2002 5.10034 8.9002 5.10034C6.6002 5.10034 5.9002 6.30029 5.9002 8.80029V25.5002Z" fill="#0048FF"/>
<path d="M24.9004 33.7002V0.700195H33.0004C40.0004 0.700195 43.2004 3.40015 43.2004 10.4001C43.2004 17.4001 40.0004 20.1003 33.0004 20.1003H30.5004V33.6003H24.9004V33.7002ZM30.6004 15.5002H32.8004C36.5004 15.5002 37.6004 14.4001 37.6004 10.4001C37.6004 6.50015 36.5004 5.30029 32.8004 5.30029H30.6004V15.5002Z" fill="#0048FF"/>
<path d="M49.6006 33.7002V0.700195H64.8006V5.60034H55.3006V14.1003H62.6006V19.0002H55.3006V28.7002H65.4006V33.6003H49.6006V33.7002Z" fill="#0048FF"/>
<path d="M71.7002 33.7002V0.700195H77.0002L83.9002 19.6003H84.0002V0.700195H89.1002V33.7002H84.2002L77.0002 13.1003H76.9002V33.7002H71.7002Z" fill="#0048FF"/>
<path d="M0.200195 78.6006V45.6006H15.4002V50.5005H5.9002V59.0005H13.2002V63.9004H5.9002V73.6006H16.0002V78.5005H0.200195V78.6006Z" fill="#0048FF"/>
<path d="M32.6 78.6006H26.9V64.9004L20 45.6006H25.8L29.8 58.2004H29.9L33.7 45.6006H39.5L32.6 64.9004V78.6006Z" fill="#0048FF"/>
<path d="M44.5 78.6006V45.6006H59.7V50.5005H50.2V59.0005H57.5V63.9004H50.2V73.6006H60.3V78.5005H44.5V78.6006Z" fill="#0048FF"/>
<path d="M8.0002 106.801H17.3002V123.5H14.6002L13.5002 121C11.8002 123 10.4002 123.9 7.8002 123.9C3.3002 123.9 0.200195 120.7 0.200195 115.4V98.4004C0.200195 93.7004 2.9002 89.9004 8.5002 89.9004C14.2002 89.9004 17.0002 94.0005 17.0002 99.0005V101.101H11.6002C11.6002 96.2006 10.6002 94.9004 8.4002 94.9004C7.0002 94.9004 5.9002 95.7005 5.9002 98.5005V115.5C5.9002 117.6 6.6002 119 8.6002 119C10.9002 119 11.7002 117.7 11.7002 114.4V111.2H8.0002V106.801Z" fill="#0048FF"/>
<path d="M28.2002 123.601H22.7002L28.8002 90.6006H35.8002L41.9002 123.601H36.4002L35.4002 116.301H29.2002L28.2002 123.601ZM30.0002 111.301H34.6002L32.4002 97.1006H32.3002L30.0002 111.301Z" fill="#0048FF"/>
<path d="M46.7002 123.601V90.6006H52.4002V118.7H61.3002V123.601H46.7002Z" fill="#0048FF"/>
<path d="M66.4004 123.601V90.6006H72.1004V118.7H81.0004V123.601H66.4004Z" fill="#0048FF"/>
<path d="M86.2002 123.601V90.6006H101.4V95.5005H91.9002V104H99.2002V108.9H91.9002V118.601H102V123.5H86.2002V123.601Z" fill="#0048FF"/>
<path d="M114 123.601H108.3V90.6006H116.3C122.7 90.6006 125.9 93.3005 125.9 100.301C125.9 105.601 123.8 107.801 121.9 108.601L126.7 123.5H121L117 109.801C116.3 109.901 115.1 109.9 114.1 109.9V123.601H114ZM114 105.4H116C119.1 105.4 120.2 104.301 120.2 100.301C120.2 96.4005 119.1 95.2004 116 95.2004H114V105.4Z" fill="#0048FF"/>
<path d="M143.3 123.601H137.6V109.9L130.7 90.6006H136.5L140.5 103.2H140.6L144.4 90.6006H150.2L143.3 109.9V123.601Z" fill="#0048FF"/>
</svg>
