<svg width="122" height="100" viewBox="0 0 122 100" fill="none" xmlns="http://www.w3.org/2000/svg">
<path d="M0.900391 6.8C0.900391 3 3.10039 0 7.90039 0C12.7004 0 14.9004 3.1 14.9004 6.8V20.5C14.9004 24.3 12.7004 27.3 7.90039 27.3C3.10039 27.3 0.900391 24.2 0.900391 20.5V6.8ZM5.50039 20.3C5.50039 22.3 6.10039 23.2 7.90039 23.2C9.70039 23.2 10.3004 22.2 10.3004 20.3V6.9C10.3004 4.9 9.70039 4 7.90039 4C6.10039 4 5.50039 5 5.50039 6.9V20.3Z" fill="black"/>
<path d="M20.8008 26.8998V0.299805H27.4008C33.0008 0.299805 35.7008 2.4998 35.7008 8.0998C35.7008 13.7998 33.1008 15.8998 27.4008 15.8998H25.4008V26.7998H20.8008V26.8998ZM25.4008 12.1998H27.2008C30.2008 12.1998 31.1008 11.2998 31.1008 8.0998C31.1008 4.8998 30.2008 3.9998 27.2008 3.9998H25.4008V12.1998Z" fill="black"/>
<path d="M40.7002 26.8998V0.299805H53.0002V4.2998H45.3002V11.1998H51.2002V15.1998H45.3002V22.9998H53.5002V26.9998H40.7002V26.8998Z" fill="black"/>
<path d="M58.6006 26.8998V0.299805H62.8006L68.4006 15.4998H68.5006V0.299805H72.6006V26.8998H68.6006L62.8006 10.2998H62.7006V26.8998H58.6006Z" fill="black"/>
<path d="M0.900391 63.1V36.5H13.1004V40.5H5.40039V47.4H11.3004V51.4H5.40039V59.2H13.6004V63.2H0.900391V63.1Z" fill="black"/>
<path d="M27.0004 63.1H22.4004V52L16.9004 36.5H21.5004L24.7004 46.6H24.8004L27.9004 36.5H32.5004L27.0004 52V63.1Z" fill="black"/>
<path d="M36.6006 63.1V36.5H48.8006V40.5H41.1006V47.4H47.0006V51.4H41.1006V59.2H49.3006V63.2H36.6006V63.1Z" fill="black"/>
<path d="M7.2 85.9H14.7V99.4H12.5L11.7 97.4C10.3 99 9.2 99.8 7.1 99.8C3.5 99.8 1 97.2 1 93V79.3C1 75.5 3.2 72.5 7.7 72.5C12.3 72.5 14.6 75.8 14.6 79.8V81.5H10.3C10.3 77.5 9.5 76.5 7.7 76.5C6.6 76.5 5.7 77.2 5.7 79.4V93C5.7 94.7 6.3 95.8 7.8 95.8C9.6 95.8 10.3 94.8 10.3 92.1V89.5H7.4V85.9H7.2Z" fill="black"/>
<path d="M23.5006 99.3998H19.1006L24.0006 72.7998H29.7006L34.6006 99.3998H30.2006L29.4006 93.4998H24.4006L23.5006 99.3998ZM25.0006 89.4998H28.7006L26.9006 78.0998H26.8006L25.0006 89.4998Z" fill="black"/>
<path d="M38.4004 99.3998V72.7998H43.0004V95.3998H50.2004V99.3998H38.4004Z" fill="black"/>
<path d="M54.2002 99.3998V72.7998H58.8002V95.3998H66.0002V99.3998H54.2002Z" fill="black"/>
<path d="M70.3008 99.3998V72.7998H82.5008V76.7998H74.8008V83.6998H80.7008V87.6998H74.8008V95.4998H83.0008V99.4998H70.3008V99.3998Z" fill="black"/>
<path d="M92.7006 99.3998H88.1006V72.7998H94.5006C99.6006 72.7998 102.201 74.9998 102.201 80.5998C102.201 84.8998 100.501 86.5998 99.0006 87.2998L102.901 99.2998H98.3006L95.1006 88.2998C94.5006 88.3998 93.6006 88.3998 92.7006 88.3998V99.3998ZM92.7006 84.6998H94.3006C96.8006 84.6998 97.7006 83.7998 97.7006 80.5998C97.7006 77.3998 96.8006 76.4998 94.3006 76.4998H92.7006V84.6998Z" fill="black"/>
<path d="M116.3 99.3998H111.7V88.2998L106.2 72.7998H110.8L114 82.8998H114.1L117.2 72.7998H121.8L116.3 88.2998V99.3998Z" fill="black"/>
</svg>
