<svg width="110" height="37" viewBox="0 0 110 37" fill="none" xmlns="http://www.w3.org/2000/svg">
<mask id="mask0_4_7552" style="mask-type:luminance" maskUnits="userSpaceOnUse" x="0" y="0" width="110" height="37">
<path d="M109.9 0.0996094H0.599609V36.2996H109.9V0.0996094Z" fill="white"/>
</mask>
<g mask="url(#mask0_4_7552)">
<path d="M9.09937 5.19946C9.09937 5.39946 8.89937 5.59961 8.59937 5.59961H8.49939C8.59939 5.59961 8.6994 5.49941 8.6994 5.39941C8.6994 5.29941 8.59939 5.19946 8.49939 5.19946C8.39939 5.19946 8.29938 5.29941 8.29938 5.39941V5.29956C8.29938 5.19956 8.29941 5.19961 8.39941 5.09961C8.19941 5.19961 7.99939 5.49951 7.99939 5.49951C7.99939 5.49951 8.0994 4.79946 8.6994 4.69946C9.3994 4.59946 9.79938 5.09961 9.79938 5.09961C9.39938 4.99961 9.19939 4.99951 8.99939 4.99951C8.99939 4.79951 9.09937 5.09946 9.09937 5.19946ZM16.2994 18.5996C15.6994 19.0996 14.9994 19.3995 14.0994 19.6995L13.8994 18.6995C14.3994 18.4995 14.6994 18.2995 15.0994 17.9995L16.2994 18.5996ZM13.1994 18.9995L13.3994 19.7996C11.0994 20.1996 8.5994 19.3995 7.1994 17.6995C7.0994 17.5995 6.99939 17.4996 6.99939 17.2996C8.59939 18.9996 10.9994 19.5995 13.1994 18.9995ZM8.79938 35.9995C5.19938 36.0995 3.89941 36.1995 3.89941 36.1995C4.59941 35.4995 5.5994 34.4995 6.6994 33.9995C7.2994 33.7995 7.69941 33.5995 8.39941 33.4995C8.39941 33.4995 9.99936 31.3995 11.0994 29.1995C11.2994 28.7995 11.4994 28.3995 11.4994 27.9995C11.4994 27.5995 11.3994 27.2994 10.9994 26.8994C10.9994 26.8994 10.9994 26.8996 10.8994 26.7996C10.7994 26.6996 10.6994 26.5996 10.3994 26.2996C9.89941 25.7996 9.0994 25.0996 7.6994 24.0996C4.2994 21.3996 3.99939 18.4996 3.99939 17.2996C3.99939 17.0996 3.99939 16.7996 3.99939 16.7996C3.99939 16.5996 4.19941 14.2996 6.39941 12.2996C5.99941 12.0996 5.7994 11.7996 5.6994 11.5996C5.2994 12.1996 4.59937 12.7996 4.59937 12.7996C4.59937 12.7996 4.59939 12.7996 4.49939 12.7996L4.39941 12.8994C4.19941 13.0994 4.1994 13.2994 4.1994 13.3994C4.1994 13.4994 4.39941 13.8994 4.39941 13.8994C4.39941 13.8994 3.99938 13.7995 3.79938 13.6995C3.79938 13.6995 3.29938 13.2996 3.29938 12.5996C3.29938 12.1996 3.29939 11.8994 3.49939 11.3994C2.99939 11.5994 2.69938 11.5996 2.29938 11.5996C1.59938 11.5996 0.899414 11.1995 0.899414 11.1995C0.899414 11.1995 1.39937 11.0995 1.59937 10.9995C1.79937 10.7995 2.1994 10.1995 2.6994 9.69946C2.8994 9.49946 3.29939 9.29956 3.49939 9.29956C3.99939 9.29956 4.29937 9.49946 4.59937 9.69946C4.69937 9.59946 4.79938 9.29961 4.79938 9.09961C3.69938 9.19961 3.49939 8.99951 3.49939 8.99951C3.99939 8.79951 4.2994 8.49956 4.6994 8.29956C4.6994 8.29956 4.69937 8.19946 4.59937 8.19946C4.49937 8.09946 4.3994 7.79946 4.1994 7.69946C3.3994 7.89946 2.79937 8.39941 2.59937 8.39941C2.59937 8.39941 2.4994 7.19946 3.6994 6.19946C3.6994 5.99946 3.6994 5.79946 3.6994 5.69946C3.6994 4.99946 3.89941 4.59961 3.89941 4.59961L4.59937 4.79956C4.59937 4.79956 4.3994 5.19961 4.1994 5.59961C4.2994 5.49961 4.59938 5.39941 4.79938 5.39941C5.49938 4.99941 6.19937 4.89941 6.59937 4.89941C6.69937 4.19941 7.19941 3.59956 7.89941 3.29956C8.59941 2.89956 9.69938 2.79956 10.7994 2.79956C10.8994 2.79956 10.9994 2.79956 11.1994 2.79956H11.2994C12.8994 2.79956 13.7994 2.19961 14.0994 2.09961L15.0994 1.39941L14.5994 2.59961C14.1994 3.59961 13.8994 4.29941 13.3994 4.89941C13.3994 4.89941 12.9994 5.39951 12.8994 5.49951C12.7994 7.89951 12.2994 9.49956 11.2994 10.7996C11.7994 10.3996 12.4994 9.99961 13.3994 9.09961C14.9994 7.49961 16.9994 4.99941 19.0994 0.899414L19.5994 -0.100586L19.6994 1.09961C19.6994 1.09961 19.7994 2.19951 19.7994 3.99951C19.7994 5.39951 19.6994 7.29956 19.1994 9.29956C25.5994 7.09956 29.7994 4.39951 30.9994 3.49951C31.1994 3.39951 31.3994 3.29956 31.3994 3.29956L32.4994 2.49951L31.9994 3.69946C31.9994 3.69946 28.4994 12.0995 20.3994 15.1995C20.5994 15.1995 20.8994 15.1995 21.0994 15.1995C21.6994 15.1995 22.2994 15.1996 22.9994 15.0996L23.9994 14.9995L23.3994 15.6995C22.2994 16.8995 20.5994 18.5994 18.4994 19.8994C18.0994 20.0994 17.6994 20.3996 17.2994 20.5996C22.9994 24.1996 24.1994 29.9996 24.1994 30.0996L24.3994 31.1995L23.5994 30.4995C21.2994 28.3995 19.6994 27.1995 18.6994 26.4995C18.5994 26.6995 18.2994 27.0995 18.1994 27.4995C17.5994 28.6995 16.8994 30.8994 16.5994 33.8994C18.6994 34.6994 19.5994 35.9996 19.9994 36.2996C19.9994 36.2996 17.4994 36.0996 13.4994 36.0996C12.2994 36.0996 11.3994 35.9995 8.79938 35.9995ZM12.2994 11.3994C14.5994 10.8994 16.5994 10.2995 18.5994 9.69946C19.0994 7.59946 19.2994 5.59961 19.2994 4.09961C19.2994 3.49961 19.2994 2.99946 19.2994 2.69946C17.4994 6.19946 15.6994 8.49941 14.0994 9.89941C13.2994 10.5994 12.7994 10.9994 12.2994 11.3994ZM4.99939 7.89941C4.99939 7.89941 5.09937 7.99961 5.09937 8.09961C5.59937 7.89961 5.7994 7.59941 6.1994 7.39941C5.6994 7.39941 5.19938 7.39951 4.79938 7.49951C4.69938 7.59951 4.89939 7.69941 4.99939 7.89941ZM4.29938 10.0996C4.29938 10.0996 4.19937 9.99951 4.09937 9.99951C3.89937 9.89951 3.59941 9.79956 3.39941 9.79956C3.19941 9.79956 2.99938 9.79951 2.79938 9.99951C2.79938 9.99951 2.39938 10.3996 2.29938 10.5996L2.09937 10.9995C1.89937 11.1995 1.6994 11.3994 1.6994 11.3994C1.6994 11.3994 1.89937 11.3994 2.09937 11.3994C2.69937 11.3994 3.49938 11.0996 4.29938 10.0996ZM5.09937 11.1995C4.89937 10.7995 4.89941 10.4996 4.89941 10.0996C4.69941 10.4996 4.3994 10.6996 4.1994 10.7996C3.6994 11.4996 3.59937 12.0995 3.59937 12.4995C3.59937 12.5995 3.5994 12.8994 3.6994 12.8994C3.6994 12.7994 3.79941 12.7995 3.89941 12.6995C3.99941 12.5995 4.09937 12.4995 4.09937 12.4995C4.09937 12.4995 4.29937 12.3995 4.59937 11.9995C4.69937 11.9995 4.99937 11.5995 5.09937 11.1995ZM5.29938 9.69946C5.69938 9.69946 6.2994 9.89956 6.6994 10.7996C6.7994 11.1996 6.89937 11.3996 7.09937 11.7996C8.69937 10.3996 8.89941 9.29956 8.89941 8.79956C8.89941 8.69956 8.89941 8.59961 8.89941 8.59961C7.29941 9.09961 6.1994 9.19956 5.1994 9.29956C5.1994 9.49956 5.09937 9.69941 5.09937 9.89941C5.19937 9.69941 5.19938 9.69946 5.29938 9.69946ZM6.29938 12.0996C6.49938 12.1996 6.79941 12.4996 6.89941 12.5996C6.89941 12.1996 6.79941 11.5995 6.39941 10.9995C5.99941 10.2995 5.59938 10.1995 5.29938 10.1995C5.19938 10.1995 5.19937 10.1995 5.09937 10.1995C5.19937 10.3995 5.29938 11.4996 6.29938 12.0996ZM9.59937 7.69946C9.59937 7.69946 9.79938 8.09946 9.79938 8.69946C9.79938 9.49946 9.29941 10.8996 7.39941 12.5996C7.39941 13.0996 7.49941 14.4996 7.39941 14.2996C7.29941 13.8996 7.19941 13.5996 6.89941 13.2996C6.79941 13.1996 6.79938 13.1996 6.79938 13.0996L6.6994 12.9995C4.8994 14.5995 4.49939 16.4995 4.49939 16.9995C4.49939 17.0995 4.49939 17.0996 4.49939 17.0996C4.49939 17.0996 4.49939 17.0995 4.49939 17.1995C4.49939 17.2995 4.49939 17.3996 4.49939 17.5996C4.49939 18.6996 4.69939 21.2994 7.99939 23.8994C10.6994 25.9994 11.3994 26.7996 11.3994 26.7996C11.8994 27.2996 12.0994 27.8995 12.0994 28.4995C12.0994 29.1995 11.6994 29.8996 11.3994 30.5996C10.2994 32.9996 8.89941 34.5996 8.89941 34.5996L8.79938 34.6995H8.6994C8.6994 34.6995 8.29937 34.7996 8.09937 34.7996C7.89937 34.7996 7.49937 34.9995 7.09937 35.1995C6.49937 35.3995 6.29938 35.5994 5.79938 35.8994C8.49938 35.6994 11.9994 35.7996 12.0994 35.7996C11.2994 34.9996 10.3994 34.5996 10.3994 34.5996L10.4994 34.3994C11.4994 31.9994 12.6994 30.0995 13.8994 28.6995C14.4994 27.9995 15.7994 26.4996 16.9994 26.2996L15.5994 27.5996C15.7994 27.9996 16.0994 28.6996 16.0994 29.7996C16.0994 30.2996 15.9994 30.8995 15.8994 31.4995C15.4994 33.1995 15.1994 34.2996 15.0994 34.5996C15.0994 34.5996 13.9994 34.5995 12.7994 35.1995L12.8994 35.2996C12.9994 35.4996 12.9994 35.3995 13.0994 35.4995C15.2994 35.5995 16.1994 35.4995 18.6994 35.6995C17.4994 34.8995 15.9994 34.2996 15.9994 34.2996V34.1995C16.4994 29.2995 17.6994 26.9995 18.1994 26.1995C16.2994 25.1995 13.3994 23.8994 13.3994 23.8994C17.4994 24.6994 19.7994 26.2996 19.9994 26.5996C20.7994 27.1996 21.8994 27.8996 23.2994 29.0996C23.0994 28.4996 22.7994 27.7994 22.2994 26.8994C21.1994 24.9994 19.4994 22.6995 16.6994 20.9995C15.0994 21.7995 13.3994 22.2996 11.7994 22.2996C11.5994 22.2996 11.2994 22.2996 11.0994 22.2996C8.59937 22.0996 6.49938 20.0995 6.29938 17.4995C6.29938 17.3995 6.29938 17.2995 6.29938 16.9995C6.79938 19.3995 8.79939 21.0995 10.9994 21.4995C11.0994 21.4995 11.0994 21.4995 11.1994 21.4995C11.2994 21.4995 11.3994 21.4995 11.3994 21.4995C11.4994 21.4995 11.4994 21.4995 11.5994 21.4995C11.6994 21.4995 11.7994 21.4995 12.0994 21.4995C14.1994 21.3995 16.2994 20.3995 18.2994 19.1995C19.9994 18.0995 21.3994 16.8996 22.3994 15.7996C21.9994 15.7996 21.6994 15.7996 21.2994 15.7996C19.8994 15.7996 18.9994 15.5996 18.8994 15.5996L17.6994 15.1995L18.8994 14.7996C25.4994 12.9996 29.3994 7.09951 30.7994 4.49951C28.2994 6.19951 21.3994 10.1995 11.6994 11.9995C11.6994 11.9995 10.9994 12.0995 10.6994 12.1995C8.4994 12.7995 7.39941 14.6995 7.39941 14.6995C7.79941 13.2995 9.29941 11.9996 9.89941 11.5996C11.0994 10.1996 12.0994 8.69951 12.1994 5.99951C11.6994 6.19951 11.0994 6.49961 10.2994 6.59961C10.2994 6.59961 12.3994 5.39946 13.3994 3.69946C13.4994 3.59946 13.4994 3.49946 13.5994 3.19946C13.0994 3.39946 12.2994 3.59961 11.2994 3.59961H11.1994C11.0994 3.59961 10.9994 3.59961 10.7994 3.59961C9.69938 3.59961 8.89938 3.69951 8.29938 3.99951C7.69938 4.19951 7.49939 4.59946 7.49939 5.19946V5.59961H7.09937C6.99937 5.59961 5.99939 5.49956 4.99939 5.79956C4.39939 5.99956 3.5994 6.49941 3.1994 7.39941C3.8994 6.99941 5.29937 6.39941 6.59937 6.39941C6.79937 6.39941 7.09938 6.39941 7.29938 6.39941L7.99939 6.49951L6.99939 7.29956C6.29939 7.79956 6.19941 7.89951 4.89941 8.49951C4.89941 8.49951 4.89941 8.49961 4.89941 8.59961L5.49939 8.49951C6.59939 8.29951 8.19941 7.99946 8.89941 7.69946L9.09937 7.59961C9.49936 7.49961 9.59937 7.69946 9.59937 7.69946ZM14.3994 33.8994C14.3994 33.8994 14.3994 33.7996 14.4994 33.7996C14.5994 33.5996 14.8994 32.4994 15.1994 31.3994C15.2994 30.7994 15.2994 30.1995 15.3994 29.6995C15.3994 28.9995 15.2994 28.3996 15.1994 28.0996C15.0994 28.1996 14.9994 28.2995 14.7994 28.4995L14.1994 29.1995C13.1994 30.3995 12.0994 31.9995 11.2994 33.9995C11.3994 34.0995 11.8994 34.3995 12.2994 34.6995C12.7994 34.2995 13.0994 34.1994 14.3994 33.8994Z" fill="#231F20"/>
</g>
<path d="M37.0994 0.0996094H36.3994V36.2996H37.0994V0.0996094Z" fill="#231F20"/>
<path d="M44.5996 8.19995L43.5996 7.8999V7.5H47.0996V7.8999L45.9996 8.19995V14.7H47.8997L48.6996 13.3H49.1996L48.8997 15.3H43.5996V15.1001L44.5996 14.6001V8.19995Z" fill="#231F20"/>
<mask id="mask1_4_7552" style="mask-type:luminance" maskUnits="userSpaceOnUse" x="0" y="0" width="110" height="37">
<path d="M109.9 0.0996094H0.599609V36.2996H109.9V0.0996094Z" fill="white"/>
</mask>
<g mask="url(#mask1_4_7552)">
<path d="M50.6996 10.4993L49.6996 10.2993V9.89917L52.0996 9.39917V14.5994L53.0996 14.9993V15.3992H49.5996V14.9993L50.5996 14.5994V10.4993H50.6996ZM52.2996 7.89917C52.2996 8.39917 52.0996 8.59937 51.4996 8.59937C50.8996 8.59937 50.6996 8.39917 50.6996 7.89917C50.6996 7.39917 50.8996 7.19922 51.4996 7.19922C52.0996 7.19922 52.2996 7.39917 52.2996 7.89917Z" fill="#231F20"/>
</g>
<mask id="mask2_4_7552" style="mask-type:luminance" maskUnits="userSpaceOnUse" x="0" y="0" width="110" height="37">
<path d="M109.9 0.0996094H0.599609V36.2996H109.9V0.0996094Z" fill="white"/>
</mask>
<g mask="url(#mask2_4_7552)">
<path d="M53.5994 10.3L52.8994 9.8999V9.5H55.9994V9.8999L55.1994 10.3L55.9994 12.8C56.0994 13.2 56.1994 13.5 56.1994 13.8L57.4994 10.3999L56.7994 10V9.6001H59.0994V10L58.3994 10.3999L56.1994 15.5H55.5994L53.5994 10.3Z" fill="#231F20"/>
</g>
<mask id="mask3_4_7552" style="mask-type:luminance" maskUnits="userSpaceOnUse" x="0" y="0" width="110" height="37">
<path d="M109.9 0.0996094H0.599609V36.2996H109.9V0.0996094Z" fill="white"/>
</mask>
<g mask="url(#mask3_4_7552)">
<path d="M60.4994 12.2996C60.4994 13.6996 61.4994 14.5996 62.5994 14.5996C62.9994 14.5996 63.3994 14.5995 63.8994 14.4995L63.9994 14.9995C62.9994 15.3995 62.1994 15.4995 61.6994 15.4995C59.9994 15.4995 58.8994 14.3996 58.8994 12.5996C58.8994 10.7996 60.0994 9.59961 61.6994 9.59961C63.2994 9.59961 63.9994 10.3996 63.9994 12.2996V12.4995H60.4994V12.2996ZM62.6994 11.6995C62.6994 10.3995 62.1994 9.99951 61.6994 9.99951C60.9994 9.99951 60.5994 10.5995 60.5994 11.6995V11.8994L62.6994 11.6995Z" fill="#231F20"/>
</g>
<mask id="mask4_4_7552" style="mask-type:luminance" maskUnits="userSpaceOnUse" x="0" y="0" width="110" height="37">
<path d="M109.9 0.0996094H0.599609V36.2996H109.9V0.0996094Z" fill="white"/>
</mask>
<g mask="url(#mask4_4_7552)">
<path d="M67.4 14.5999L68.6 14.9998V15.3997H65V14.9998L66 14.5999V10.4998L65 10.2998V9.89966L67.4 9.39966V10.0999L68 9.69971C68.4 9.49971 68.8 9.2998 69.1 9.2998C69.3 9.2998 69.6 9.29976 69.8 9.49976V10.8997H68.6L68.2 10.1997C68.1 10.1997 68.1 10.1997 68 10.1997C67.8 10.1997 67.6 10.1998 67.3 10.2998V14.3997H67.4V14.5999Z" fill="#231F20"/>
</g>
<mask id="mask5_4_7552" style="mask-type:luminance" maskUnits="userSpaceOnUse" x="0" y="0" width="110" height="37">
<path d="M109.9 0.0996094H0.599609V36.2996H109.9V0.0996094Z" fill="white"/>
</mask>
<g mask="url(#mask5_4_7552)">
<path d="M72.6998 17.2996L73.8998 17.6995V18.0996H70.2998V17.6995L71.2998 17.2996V10.4995L70.2998 10.2996V9.89941L72.6998 9.39941V10.0996C73.3998 9.69961 74.0998 9.49951 74.5998 9.49951C75.7998 9.49951 76.6998 10.5995 76.6998 12.1995C76.6998 13.9995 75.3998 15.4995 73.3998 15.4995C72.9998 15.4995 72.8998 15.4994 72.5998 15.3994V17.2996H72.6998ZM72.6998 14.8994C72.8998 14.8994 72.8998 14.8994 73.1998 14.8994C74.4998 14.8994 75.2998 14.0995 75.2998 12.4995C75.2998 11.0995 74.7998 10.3994 73.6998 10.3994C73.4998 10.3994 73.2998 10.3995 72.8998 10.4995V14.7996H72.6998V14.8994Z" fill="#231F20"/>
</g>
<mask id="mask6_4_7552" style="mask-type:luminance" maskUnits="userSpaceOnUse" x="0" y="0" width="110" height="37">
<path d="M109.9 0.0996094H0.599609V36.2996H109.9V0.0996094Z" fill="white"/>
</mask>
<g mask="url(#mask6_4_7552)">
<path d="M83.2994 12.3999C83.2994 14.1999 82.0994 15.5 80.2994 15.5C78.4994 15.5 77.3994 14.3001 77.3994 12.6001C77.3994 10.8001 78.5994 9.5 80.4994 9.5C82.1994 9.5 83.2994 10.6999 83.2994 12.3999ZM78.9994 12.3999C78.9994 13.9999 79.4994 14.8999 80.3994 14.8999C81.3994 14.8999 81.7994 14.1001 81.7994 12.6001C81.7994 11.0001 81.1994 10.1001 80.1994 10.1001C79.3994 10.1001 78.9994 10.9999 78.9994 12.3999Z" fill="#231F20"/>
</g>
<mask id="mask7_4_7552" style="mask-type:luminance" maskUnits="userSpaceOnUse" x="0" y="0" width="110" height="37">
<path d="M109.9 0.0996094H0.599609V36.2996H109.9V0.0996094Z" fill="white"/>
</mask>
<g mask="url(#mask7_4_7552)">
<path d="M90.0992 12.3999C90.0992 14.1999 88.8992 15.5 87.0992 15.5C85.2992 15.5 84.1992 14.3001 84.1992 12.6001C84.1992 10.8001 85.3992 9.5 87.2992 9.5C88.8992 9.5 90.0992 10.6999 90.0992 12.3999ZM85.5992 12.3999C85.5992 13.9999 86.0992 14.8999 86.9992 14.8999C87.9992 14.8999 88.3992 14.1001 88.3992 12.6001C88.3992 11.0001 87.7992 10.1001 86.7992 10.1001C86.0992 10.1001 85.5992 10.9999 85.5992 12.3999Z" fill="#231F20"/>
</g>
<path d="M91.6 8.1001L90.5 7.8999V7.5L93.1 7V14.6001L94 15.1001V15.3H90.7V15.1001L91.6 14.6001V8.1001Z" fill="#231F20"/>
<mask id="mask8_4_7552" style="mask-type:luminance" maskUnits="userSpaceOnUse" x="0" y="0" width="110" height="37">
<path d="M109.9 0.0996094H0.599609V36.2996H109.9V0.0996094Z" fill="white"/>
</mask>
<g mask="url(#mask8_4_7552)">
<path d="M49.7996 26.1995H50.2996L50.1996 28.0996C48.8996 28.4996 48.2996 28.4995 47.4996 28.4995C45.0996 28.4995 43.5996 27.0996 43.5996 24.5996C43.5996 22.0996 45.2997 20.3994 47.8997 20.3994C48.5997 20.3994 49.1996 20.4996 50.1996 20.7996V22.6995H49.6996L49.0996 21.0996C48.9996 21.0996 48.6996 21.0996 48.4996 21.0996C46.2996 21.0996 45.1996 22.4996 45.1996 24.5996C45.1996 26.6996 46.3996 27.8994 48.1996 27.8994C48.5996 27.8994 48.7996 27.8996 48.9996 27.7996L49.7996 26.1995Z" fill="#231F20"/>
</g>
<mask id="mask9_4_7552" style="mask-type:luminance" maskUnits="userSpaceOnUse" x="0" y="0" width="110" height="37">
<path d="M109.9 0.0996094H0.599609V36.2996H109.9V0.0996094Z" fill="white"/>
</mask>
<g mask="url(#mask9_4_7552)">
<path d="M52.1 23.4993L51.1 23.2993V22.8992L53.5 22.3992V27.5994L54.5 27.9993V28.3992H51V27.9993L52 27.5994V23.4993H52.1ZM53.6 20.8992C53.6 21.3992 53.4 21.5994 52.8 21.5994C52.2 21.5994 52 21.3992 52 20.8992C52 20.3992 52.2 20.1992 52.8 20.1992C53.4 20.1992 53.6 20.3992 53.6 20.8992Z" fill="#231F20"/>
</g>
<mask id="mask10_4_7552" style="mask-type:luminance" maskUnits="userSpaceOnUse" x="0" y="0" width="110" height="37">
<path d="M109.9 0.0996094H0.599609V36.2996H109.9V0.0996094Z" fill="white"/>
</mask>
<g mask="url(#mask10_4_7552)">
<path d="M54.2998 23.1995V22.7996C54.8998 22.5996 55.2998 22.3995 55.4998 22.1995C55.6998 21.9995 55.8998 21.6996 56.1998 21.0996H56.6998V22.4995H58.4998V23.0996H56.6998V26.6995C56.6998 27.3995 57.1998 27.4995 57.7998 27.4995C57.8998 27.4995 58.3998 27.4994 58.4998 27.3994L58.5998 27.8994C57.2998 28.2994 56.9998 28.2996 56.6998 28.2996C55.8998 28.2996 55.2998 28.0995 55.2998 26.9995V22.9995H54.2998V23.1995Z" fill="#231F20"/>
</g>
<mask id="mask11_4_7552" style="mask-type:luminance" maskUnits="userSpaceOnUse" x="0" y="0" width="110" height="37">
<path d="M109.9 0.0996094H0.599609V36.2996H109.9V0.0996094Z" fill="white"/>
</mask>
<g mask="url(#mask11_4_7552)">
<path d="M59.4998 23.2996L58.7998 23.0996V22.6995H61.7998V23.0996L60.9998 23.2996L61.9998 25.6995C62.0998 26.0995 62.1998 26.4996 62.3998 26.7996L63.5998 23.3994L62.7998 22.9995V22.5996H65.0998V22.9995L64.3998 23.3994L61.8998 29.6995C61.4998 30.6995 60.8998 30.9995 59.9998 30.9995C59.5998 30.9995 59.3998 30.9994 59.1998 30.8994V29.7996H60.1998L60.3998 30.4995C60.8998 30.3995 61.1998 30.0996 61.4998 29.2996L61.8998 28.4995L59.4998 23.2996Z" fill="#231F20"/>
</g>
<mask id="mask12_4_7552" style="mask-type:luminance" maskUnits="userSpaceOnUse" x="0" y="0" width="110" height="37">
<path d="M109.9 0.0996094H0.599609V36.2996H109.9V0.0996094Z" fill="white"/>
</mask>
<g mask="url(#mask12_4_7552)">
<path d="M74.5994 26.1995H75.0994L74.9994 28.0996C73.6994 28.4996 73.0994 28.4995 72.2994 28.4995C69.8994 28.4995 68.3994 27.0996 68.3994 24.5996C68.3994 22.0996 70.0994 20.3994 72.6994 20.3994C73.3994 20.3994 73.9994 20.4996 74.9994 20.7996V22.6995H74.4994L73.8994 21.0996C73.7994 21.0996 73.4994 21.0996 73.2994 21.0996C71.0994 21.0996 69.9994 22.4996 69.9994 24.5996C69.9994 26.6996 71.1994 27.8994 72.9994 27.8994C73.3994 27.8994 73.5994 27.8996 73.7994 27.7996L74.5994 26.1995Z" fill="#231F20"/>
</g>
<mask id="mask13_4_7552" style="mask-type:luminance" maskUnits="userSpaceOnUse" x="0" y="0" width="110" height="37">
<path d="M109.9 0.0996094H0.599609V36.2996H109.9V0.0996094Z" fill="white"/>
</mask>
<g mask="url(#mask13_4_7552)">
<path d="M81.9996 25.4995C81.9996 27.2995 80.7996 28.5996 78.9996 28.5996C77.1996 28.5996 76.0996 27.3995 76.0996 25.6995C76.0996 23.8995 77.2996 22.5996 79.1996 22.5996C80.7996 22.5996 81.9996 23.7995 81.9996 25.4995ZM77.4996 25.4995C77.4996 27.0995 77.9997 27.9995 78.8997 27.9995C79.8997 27.9995 80.2996 27.1995 80.2996 25.6995C80.2996 24.0995 79.6996 23.1995 78.6996 23.1995C77.9996 23.1995 77.4996 23.9995 77.4996 25.4995Z" fill="#231F20"/>
</g>
<mask id="mask14_4_7552" style="mask-type:luminance" maskUnits="userSpaceOnUse" x="0" y="0" width="110" height="37">
<path d="M109.9 0.0996094H0.599609V36.2996H109.9V0.0996094Z" fill="white"/>
</mask>
<g mask="url(#mask14_4_7552)">
<path d="M86.7998 27.8992C85.4998 28.3992 85.0998 28.4993 84.6998 28.4993C83.9998 28.4993 83.2998 27.9993 83.2998 26.7993V23.4993L82.2998 23.2993V22.8992L84.6998 22.3992V26.0994C84.6998 27.0994 85.0998 27.3992 85.8998 27.3992C86.2998 27.3992 86.3998 27.3993 86.6998 27.2993V23.2993L85.6998 23.0994V22.6992L88.0998 22.1992V27.0994L89.0998 27.2993V27.6992L86.6998 28.1992V27.8992H86.7998Z" fill="#231F20"/>
</g>
<mask id="mask15_4_7552" style="mask-type:luminance" maskUnits="userSpaceOnUse" x="0" y="0" width="110" height="37">
<path d="M109.9 0.0996094H0.599609V36.2996H109.9V0.0996094Z" fill="white"/>
</mask>
<g mask="url(#mask15_4_7552)">
<path d="M92.1996 27.5996L92.9996 27.9995V28.3994H89.5996V27.9995L90.5996 27.5996V23.4995L89.5996 23.2996V22.8994L91.9996 22.3994V22.9995C93.2996 22.3995 93.5996 22.3994 94.0996 22.3994C95.0996 22.3994 95.4996 22.9996 95.4996 24.0996V27.4995L96.4996 27.8994V28.2996H93.1996V27.8994L93.8997 27.4995V24.4995C93.8997 23.7995 93.4996 23.2996 92.7996 23.2996C92.3996 23.2996 92.1996 23.2994 91.7996 23.3994V27.5996H92.1996Z" fill="#231F20"/>
</g>
<mask id="mask16_4_7552" style="mask-type:luminance" maskUnits="userSpaceOnUse" x="0" y="0" width="110" height="37">
<path d="M109.9 0.0996094H0.599609V36.2996H109.9V0.0996094Z" fill="white"/>
</mask>
<g mask="url(#mask16_4_7552)">
<path d="M101.999 24.0996H100.999L100.399 22.9995H100.299C99.2994 22.9995 98.4994 23.9996 98.4994 25.2996C98.4994 26.6996 99.2994 27.5996 100.699 27.5996C101.099 27.5996 101.299 27.5995 101.799 27.4995L101.899 27.9995C100.799 28.3995 100.199 28.4995 99.5994 28.4995C97.9994 28.4995 96.8994 27.2995 96.8994 25.6995C96.8994 23.8995 98.1994 22.5996 100.199 22.5996C100.699 22.5996 101.199 22.6996 101.899 22.7996V24.0996H101.999Z" fill="#231F20"/>
</g>
<mask id="mask17_4_7552" style="mask-type:luminance" maskUnits="userSpaceOnUse" x="0" y="0" width="110" height="37">
<path d="M109.9 0.0996094H0.599609V36.2996H109.9V0.0996094Z" fill="white"/>
</mask>
<g mask="url(#mask17_4_7552)">
<path d="M103.799 23.4993L102.799 23.2993V22.8992L105.199 22.3992V27.5994L106.199 27.9993V28.3992H102.699V27.9993L103.699 27.5994V23.4993H103.799ZM105.399 20.8992C105.399 21.3992 105.199 21.5994 104.599 21.5994C103.999 21.5994 103.799 21.3992 103.799 20.8992C103.799 20.3992 103.999 20.1992 104.599 20.1992C105.199 20.1992 105.399 20.3992 105.399 20.8992Z" fill="#231F20"/>
</g>
<path d="M106.5 20.5V20.8999L107.6 21.1001V27.6001L106.5 28V28.3999H110V28L109 27.6001V20L106.5 20.5Z" fill="#231F20"/>
</svg>
