<svg width="198" height="35" viewBox="0 0 198 35" fill="none" xmlns="http://www.w3.org/2000/svg">
<mask id="mask0_4_7391" style="mask-type:luminance" maskUnits="userSpaceOnUse" x="0" y="0" width="198" height="35">
<path d="M197.5 0.299805H0.400391V34.2998H197.5V0.299805Z" fill="white"/>
</mask>
<g mask="url(#mask0_4_7391)">
<path d="M128.1 3.39941C128 2.59941 127.2 1.89941 126.3 1.89941C124.7 1.89941 124.1 3.29946 124.1 4.69946C124.1 6.09946 124.7 7.39941 126.3 7.39941C127.4 7.39941 128 6.59961 128.1 5.59961H129.8C129.6 7.59961 128.2 8.89941 126.2 8.89941C123.7 8.89941 122.2 6.99946 122.2 4.69946C122.2 2.29946 123.7 0.399414 126.2 0.399414C128 0.399414 129.5 1.39956 129.7 3.29956H128.1V3.39941Z" fill="#231F20"/>
</g>
<mask id="mask1_4_7391" style="mask-type:luminance" maskUnits="userSpaceOnUse" x="0" y="0" width="198" height="35">
<path d="M197.5 0.299805H0.400391V34.2998H197.5V0.299805Z" fill="white"/>
</mask>
<g mask="url(#mask1_4_7391)">
<path d="M131 2.79932H132.6V3.89917C132.9 3.09917 133.7 2.69922 134.5 2.69922C134.6 2.69922 134.7 2.69922 134.8 2.69922V4.19922C134.7 4.19922 134.5 4.19922 134.2 4.19922C133.1 4.19922 132.6 5.09937 132.6 6.09937V8.69922H131V2.79932Z" fill="#231F20"/>
</g>
<mask id="mask2_4_7391" style="mask-type:luminance" maskUnits="userSpaceOnUse" x="0" y="0" width="198" height="35">
<path d="M197.5 0.299805H0.400391V34.2998H197.5V0.299805Z" fill="white"/>
</mask>
<g mask="url(#mask2_4_7391)">
<path d="M139.1 5.19946C139 4.39946 138.6 3.99951 137.9 3.99951C136.9 3.99951 136.5 4.79946 136.5 5.19946H139.1ZM136.5 6.19946C136.5 7.19946 137.1 7.69946 138 7.69946C138.7 7.69946 139.1 7.19941 139.2 6.89941H140.7C140.2 8.29941 139.2 8.79956 138 8.79956C136.2 8.79956 134.9 7.59946 134.9 5.69946C134.9 3.89946 136.1 2.59961 138 2.59961C140 2.59961 140.9 4.29961 140.8 6.09961H136.5V6.19946Z" fill="#231F20"/>
</g>
<mask id="mask3_4_7391" style="mask-type:luminance" maskUnits="userSpaceOnUse" x="0" y="0" width="198" height="35">
<path d="M197.5 0.299805H0.400391V34.2998H197.5V0.299805Z" fill="white"/>
</mask>
<g mask="url(#mask3_4_7391)">
<path d="M145.3 5.89917C145.1 6.09917 144.5 6.09922 143.9 6.19922C143.4 6.29922 143 6.39937 143 7.09937C143 7.69937 143.5 7.89917 144 7.89917C145.2 7.89917 145.4 6.89927 145.4 6.49927V5.79932H145.3V5.89917ZM141.6 4.59937C141.7 3.09937 143.1 2.69922 144.3 2.69922C145.4 2.69922 146.9 2.89917 146.9 4.39917V7.49927C146.9 8.09927 146.9 8.49917 147.1 8.89917H145.5C145.5 8.69917 145.4 8.59932 145.4 8.29932C144.8 8.89932 144.2 8.99927 143.5 8.99927C142.4 8.99927 141.5 8.39922 141.5 7.19922C141.5 5.79922 142.5 5.49917 143.5 5.39917C144.5 5.29917 145.4 5.29937 145.4 4.59937C145.4 3.89937 144.9 3.79932 144.4 3.79932C143.8 3.79932 143.4 3.99922 143.4 4.69922H141.6V4.59937Z" fill="#231F20"/>
</g>
<mask id="mask4_4_7391" style="mask-type:luminance" maskUnits="userSpaceOnUse" x="0" y="0" width="198" height="35">
<path d="M197.5 0.299805H0.400391V34.2998H197.5V0.299805Z" fill="white"/>
</mask>
<g mask="url(#mask4_4_7391)">
<path d="M150.301 2.80005H151.401V3.8999H150.301V6.80005C150.301 7.40005 150.401 7.5 151.001 7.5C151.201 7.5 151.301 7.5 151.501 7.5V8.69995C151.301 8.69995 150.801 8.69995 150.601 8.69995C149.601 8.69995 148.801 8.50005 148.801 7.30005V3.80005H147.801V2.69995H148.801V1H150.401V2.80005H150.301Z" fill="#231F20"/>
</g>
<path d="M152.301 8.69995H153.901V2.80005H152.301V8.69995ZM152.301 1.8999H153.901V0.5H152.301V1.8999Z" fill="#231F20"/>
<path d="M158.401 8.69971H156.701L154.601 2.7998H156.301L157.601 6.89966L158.801 2.7998H160.401L158.401 8.69971Z" fill="#231F20"/>
<mask id="mask5_4_7391" style="mask-type:luminance" maskUnits="userSpaceOnUse" x="0" y="0" width="198" height="35">
<path d="M197.5 0.299805H0.400391V34.2998H197.5V0.299805Z" fill="white"/>
</mask>
<g mask="url(#mask5_4_7391)">
<path d="M165.1 5.19946C165 4.39946 164.6 3.99951 163.9 3.99951C162.9 3.99951 162.5 4.79946 162.5 5.19946H165.1ZM162.5 6.19946C162.5 7.19946 163.1 7.69946 164 7.69946C164.7 7.69946 165.1 7.19941 165.2 6.89941H166.7C166.2 8.29941 165.2 8.79956 164 8.79956C162.2 8.79956 160.9 7.59946 160.9 5.69946C160.9 3.89946 162.1 2.59961 164 2.59961C166 2.59961 166.9 4.29961 166.8 6.09961H162.5V6.19946Z" fill="#231F20"/>
</g>
<mask id="mask6_4_7391" style="mask-type:luminance" maskUnits="userSpaceOnUse" x="0" y="0" width="198" height="35">
<path d="M197.5 0.299805H0.400391V34.2998H197.5V0.299805Z" fill="white"/>
</mask>
<g mask="url(#mask6_4_7391)">
<path d="M126.301 19.0996C127.901 19.0996 128.501 17.6994 128.501 16.3994C128.501 14.8994 127.901 13.5996 126.301 13.5996C124.701 13.5996 124.101 14.9994 124.101 16.3994C124.201 17.7994 124.701 19.0996 126.301 19.0996ZM126.301 12.0996C128.801 12.0996 130.301 13.9994 130.301 16.3994C130.301 18.7994 128.801 20.5996 126.301 20.5996C123.801 20.5996 122.301 18.6994 122.301 16.3994C122.301 13.9994 123.801 12.0996 126.301 12.0996Z" fill="#231F20"/>
</g>
<mask id="mask7_4_7391" style="mask-type:luminance" maskUnits="userSpaceOnUse" x="0" y="0" width="198" height="35">
<path d="M197.5 0.299805H0.400391V34.2998H197.5V0.299805Z" fill="white"/>
</mask>
<g mask="url(#mask7_4_7391)">
<path d="M131.4 14.6001H133V15.7C133.3 14.9 134.1 14.5 134.9 14.5C135 14.5 135.1 14.5 135.2 14.5V16C135.1 16 134.9 16 134.6 16C133.5 16 133 16.8999 133 17.8999V20.5H131.4V14.6001Z" fill="#231F20"/>
</g>
<mask id="mask8_4_7391" style="mask-type:luminance" maskUnits="userSpaceOnUse" x="0" y="0" width="198" height="35">
<path d="M197.5 0.299805H0.400391V34.2998H197.5V0.299805Z" fill="white"/>
</mask>
<g mask="url(#mask8_4_7391)">
<path d="M139.9 17.3994C139.9 16.4994 139.6 15.5996 138.5 15.5996C137.6 15.5996 137.1 16.3996 137.1 17.2996C137.1 18.0996 137.4 19.0996 138.5 19.0996C139.5 19.0996 139.9 18.2994 139.9 17.3994ZM141.5 20.0996C141.5 21.0996 141.2 22.6995 138.4 22.6995C137.3 22.6995 135.9 22.0996 135.8 20.7996H137.4C137.5 21.3996 138.1 21.5996 138.6 21.5996C139.5 21.5996 140 20.9996 139.8 20.0996V19.2996C139.5 19.8996 138.8 20.1995 138 20.1995C136.2 20.1995 135.5 18.7996 135.5 17.2996C135.5 15.7996 136.4 14.3994 138 14.3994C138.8 14.3994 139.4 14.5996 139.7 15.2996V14.4995H141.3V20.1995H141.5V20.0996Z" fill="#231F20"/>
</g>
<mask id="mask9_4_7391" style="mask-type:luminance" maskUnits="userSpaceOnUse" x="0" y="0" width="198" height="35">
<path d="M197.5 0.299805H0.400391V34.2998H197.5V0.299805Z" fill="white"/>
</mask>
<g mask="url(#mask9_4_7391)">
<path d="M146.401 17.6001C146.201 17.8001 145.601 17.7999 145.001 17.8999C144.501 17.9999 144.101 18.1 144.101 18.8C144.101 19.4 144.601 19.6001 145.101 19.6001C146.301 19.6001 146.501 18.6 146.501 18.2V17.5H146.401V17.6001ZM142.701 16.3999C142.801 14.8999 144.201 14.5 145.401 14.5C146.501 14.5 148.001 14.7 148.001 16.2V19.3C148.001 19.9 148.001 20.3 148.201 20.7H146.601C146.601 20.5 146.501 20.4001 146.501 20.1001C145.901 20.7001 145.301 20.8 144.601 20.8C143.501 20.8 142.601 20.2 142.601 19C142.601 17.6 143.601 17.3 144.601 17.2C145.601 17.1 146.501 17.0999 146.501 16.3999C146.501 15.6999 146.001 15.6001 145.501 15.6001C145.001 15.6001 144.501 15.8 144.501 16.5H142.701V16.3999Z" fill="#231F20"/>
</g>
<mask id="mask10_4_7391" style="mask-type:luminance" maskUnits="userSpaceOnUse" x="0" y="0" width="198" height="35">
<path d="M197.5 0.299805H0.400391V34.2998H197.5V0.299805Z" fill="white"/>
</mask>
<g mask="url(#mask10_4_7391)">
<path d="M149.301 14.5996H150.901V15.3994C151.401 14.6994 152.001 14.3994 152.701 14.3994C154.401 14.3994 154.901 15.3996 154.901 16.7996V20.3994H153.301V17.0996C153.301 16.0996 153.101 15.5996 152.301 15.5996C151.401 15.5996 151.101 16.0996 151.101 17.2996V20.3994H149.501V14.5996H149.301Z" fill="#231F20"/>
</g>
<path d="M156.101 14.5999H157.701V20.4998H156.101V14.5999ZM157.701 13.6997H156.101V12.2998H157.701V13.6997Z" fill="#231F20"/>
<mask id="mask11_4_7391" style="mask-type:luminance" maskUnits="userSpaceOnUse" x="0" y="0" width="198" height="35">
<path d="M197.5 0.299805H0.400391V34.2998H197.5V0.299805Z" fill="white"/>
</mask>
<g mask="url(#mask11_4_7391)">
<path d="M160.201 18.5996C160.201 19.2996 160.801 19.5996 161.401 19.5996C161.901 19.5996 162.401 19.3996 162.401 18.7996C162.401 18.2996 161.701 18.0994 160.601 17.8994C159.701 17.6994 158.801 17.2996 158.801 16.2996C158.801 14.7996 160.001 14.3994 161.401 14.3994C162.601 14.3994 163.901 14.8996 164.001 16.2996H162.401C162.401 15.5996 161.801 15.4995 161.301 15.4995C161.001 15.4995 160.401 15.5996 160.401 16.0996C160.401 16.6996 161.301 16.7995 162.201 16.9995C163.101 17.1995 164.001 17.5995 164.001 18.6995C164.001 20.2995 162.601 20.6995 161.301 20.6995C160.001 20.6995 158.601 20.0995 158.601 18.6995H160.201V18.5996Z" fill="#231F20"/>
</g>
<mask id="mask12_4_7391" style="mask-type:luminance" maskUnits="userSpaceOnUse" x="0" y="0" width="198" height="35">
<path d="M197.5 0.299805H0.400391V34.2998H197.5V0.299805Z" fill="white"/>
</mask>
<g mask="url(#mask12_4_7391)">
<path d="M168.701 17.6001C168.501 17.8001 167.901 17.7999 167.301 17.8999C166.801 17.9999 166.401 18.1 166.401 18.8C166.401 19.4 166.901 19.6001 167.401 19.6001C168.601 19.6001 168.801 18.6 168.801 18.2V17.5H168.701V17.6001ZM164.901 16.3999C165.001 14.8999 166.401 14.5 167.601 14.5C168.701 14.5 170.201 14.7 170.201 16.2V19.3C170.201 19.9 170.201 20.3 170.401 20.7H168.801C168.801 20.5 168.701 20.4001 168.701 20.1001C168.101 20.7001 167.501 20.8 166.801 20.8C165.701 20.8 164.801 20.2 164.801 19C164.801 17.6 165.801 17.3 166.801 17.2C167.801 17.1 168.701 17.0999 168.701 16.3999C168.701 15.6999 168.201 15.6001 167.701 15.6001C167.201 15.6001 166.701 15.8 166.701 16.5H164.901V16.3999Z" fill="#231F20"/>
</g>
<mask id="mask13_4_7391" style="mask-type:luminance" maskUnits="userSpaceOnUse" x="0" y="0" width="198" height="35">
<path d="M197.5 0.299805H0.400391V34.2998H197.5V0.299805Z" fill="white"/>
</mask>
<g mask="url(#mask13_4_7391)">
<path d="M173.7 14.5994H174.8V15.6992H173.7V18.5994C173.7 19.1994 173.8 19.2993 174.4 19.2993C174.6 19.2993 174.7 19.2993 174.9 19.2993V20.4993C174.7 20.4993 174.2 20.5994 174 20.5994C173 20.5994 172.2 20.3992 172.2 19.1992V15.6992H171.2V14.5994H172.2V12.6992H173.8L173.7 14.5994Z" fill="#231F20"/>
</g>
<path d="M175.601 14.5999H177.201V20.4998H175.601V14.5999ZM177.301 13.6997H175.701V12.2998H177.301V13.6997Z" fill="#231F20"/>
<mask id="mask14_4_7391" style="mask-type:luminance" maskUnits="userSpaceOnUse" x="0" y="0" width="198" height="35">
<path d="M197.5 0.299805H0.400391V34.2998H197.5V0.299805Z" fill="white"/>
</mask>
<g mask="url(#mask14_4_7391)">
<path d="M181.401 19.5C182.501 19.5 182.901 18.6001 182.901 17.6001C182.901 16.7001 182.601 15.7 181.401 15.7C180.301 15.7 179.901 16.6001 179.901 17.6001C180.001 18.4001 180.401 19.5 181.401 19.5ZM181.401 14.5C183.201 14.5 184.501 15.7001 184.501 17.6001C184.501 19.5001 183.301 20.7 181.401 20.7C179.501 20.7 178.301 19.5001 178.301 17.6001C178.301 15.6001 179.601 14.5 181.401 14.5Z" fill="#231F20"/>
</g>
<mask id="mask15_4_7391" style="mask-type:luminance" maskUnits="userSpaceOnUse" x="0" y="0" width="198" height="35">
<path d="M197.5 0.299805H0.400391V34.2998H197.5V0.299805Z" fill="white"/>
</mask>
<g mask="url(#mask15_4_7391)">
<path d="M185.5 14.5996H187.1V15.3994C187.6 14.6994 188.2 14.3994 188.9 14.3994C190.6 14.3994 191.1 15.3996 191.1 16.7996V20.3994H189.5V17.0996C189.5 16.0996 189.2 15.5996 188.5 15.5996C187.6 15.5996 187.3 16.0996 187.3 17.2996V20.3994H185.7V14.5996H185.5Z" fill="#231F20"/>
</g>
<mask id="mask16_4_7391" style="mask-type:luminance" maskUnits="userSpaceOnUse" x="0" y="0" width="198" height="35">
<path d="M197.5 0.299805H0.400391V34.2998H197.5V0.299805Z" fill="white"/>
</mask>
<g mask="url(#mask16_4_7391)">
<path d="M193.5 18.5996C193.5 19.2996 194.1 19.5996 194.7 19.5996C195.2 19.5996 195.7 19.3996 195.7 18.7996C195.7 18.2996 195 18.0994 193.9 17.8994C193 17.6994 192.1 17.2996 192.1 16.2996C192.1 14.7996 193.3 14.3994 194.7 14.3994C195.9 14.3994 197.2 14.8996 197.3 16.2996H195.7C195.7 15.5996 195.1 15.4995 194.6 15.4995C194.3 15.4995 193.7 15.5996 193.7 16.0996C193.7 16.6996 194.6 16.7995 195.5 16.9995C196.4 17.1995 197.3 17.5995 197.3 18.6995C197.3 20.2995 195.9 20.6995 194.6 20.6995C193.3 20.6995 191.9 20.0995 191.9 18.6995H193.5V18.5996Z" fill="#231F20"/>
</g>
<mask id="mask17_4_7391" style="mask-type:luminance" maskUnits="userSpaceOnUse" x="0" y="0" width="198" height="35">
<path d="M197.5 0.299805H0.400391V34.2998H197.5V0.299805Z" fill="white"/>
</mask>
<g mask="url(#mask17_4_7391)">
<path d="M125.401 29.0996C126.501 29.0996 126.901 28.1995 126.901 27.1995C126.901 26.2995 126.601 25.2996 125.401 25.2996C124.201 25.2996 123.901 26.1995 123.901 27.1995C123.901 28.1995 124.301 29.0996 125.401 29.0996ZM125.401 24.0996C127.201 24.0996 128.501 25.2995 128.501 27.1995C128.501 29.0995 127.301 30.2996 125.401 30.2996C123.501 30.2996 122.301 29.0995 122.301 27.1995C122.301 25.2995 123.601 24.0996 125.401 24.0996Z" fill="#231F20"/>
</g>
<mask id="mask18_4_7391" style="mask-type:luminance" maskUnits="userSpaceOnUse" x="0" y="0" width="198" height="35">
<path d="M197.5 0.299805H0.400391V34.2998H197.5V0.299805Z" fill="white"/>
</mask>
<g mask="url(#mask18_4_7391)">
<path d="M129.801 27.3999H128.801V26.3H129.801V25.8C129.801 24.8 130.501 24 131.701 24C132.001 24 132.301 24 132.601 24V25.2C132.401 25.2 132.301 25.2 132.001 25.2C131.501 25.2 131.401 25.3999 131.401 25.8999V26.3999H132.501V27.5H131.401V32.3H129.801V27.3999Z" fill="#231F20"/>
</g>
<path d="M136.601 24.0996H138.401V30.6995H142.401V32.2996H136.601V24.0996Z" fill="#231F20"/>
<path d="M143.2 26.3994H144.8V32.2996H143.2V26.3994ZM144.9 25.4995H143.3V24.0996H144.9V25.4995Z" fill="#231F20"/>
<path d="M149.301 32.2996H147.601L145.601 26.3994H147.301L148.501 30.2996L149.801 26.3994H151.401L149.301 32.2996Z" fill="#231F20"/>
<mask id="mask19_4_7391" style="mask-type:luminance" maskUnits="userSpaceOnUse" x="0" y="0" width="198" height="35">
<path d="M197.5 0.299805H0.400391V34.2998H197.5V0.299805Z" fill="white"/>
</mask>
<g mask="url(#mask19_4_7391)">
<path d="M156.001 28.5996C155.901 27.7996 155.501 27.3994 154.801 27.3994C153.801 27.3994 153.401 28.1996 153.401 28.5996H156.001ZM153.401 29.6995C153.401 30.6995 154.001 31.1995 154.901 31.1995C155.601 31.1995 156.001 30.6994 156.101 30.3994H157.601C157.101 31.7994 156.101 32.2996 154.901 32.2996C153.101 32.2996 151.801 31.0995 151.801 29.1995C151.801 27.2995 153.001 26.0996 154.901 26.0996C156.901 26.0996 157.801 27.7996 157.701 29.5996H153.401V29.6995Z" fill="#231F20"/>
</g>
<mask id="mask20_4_7391" style="mask-type:luminance" maskUnits="userSpaceOnUse" x="0" y="0" width="198" height="35">
<path d="M197.5 0.299805H0.400391V34.2998H197.5V0.299805Z" fill="white"/>
</mask>
<g mask="url(#mask20_4_7391)">
<path d="M158.601 26.3997H160.201V27.4998C160.501 26.6998 161.301 26.2998 162.101 26.2998C162.201 26.2998 162.301 26.2997 162.401 26.3997V27.8997C162.301 27.8997 162.101 27.7998 161.801 27.7998C160.701 27.7998 160.201 28.6997 160.201 29.6997V32.2998H158.601V26.3997Z" fill="#231F20"/>
</g>
<mask id="mask21_4_7391" style="mask-type:luminance" maskUnits="userSpaceOnUse" x="0" y="0" width="198" height="35">
<path d="M197.5 0.299805H0.400391V34.2998H197.5V0.299805Z" fill="white"/>
</mask>
<g mask="url(#mask21_4_7391)">
<path d="M167.3 29.2998C167.3 28.3998 167 27.3997 165.9 27.3997C164.8 27.3997 164.5 28.2998 164.5 29.2998C164.5 30.1998 164.8 31.0999 165.9 31.0999C167 31.0999 167.3 30.1998 167.3 29.2998ZM163 26.3997H164.6V27.1997C164.9 26.4997 165.6 26.2998 166.3 26.2998C168.1 26.2998 169 27.7998 169 29.4998C169 31.0998 168.1 32.5999 166.4 32.5999C165.7 32.5999 165 32.2997 164.6 31.6997V34.3997H163V26.3997Z" fill="#231F20"/>
</g>
<mask id="mask22_4_7391" style="mask-type:luminance" maskUnits="userSpaceOnUse" x="0" y="0" width="198" height="35">
<path d="M197.5 0.299805H0.400391V34.2998H197.5V0.299805Z" fill="white"/>
</mask>
<g mask="url(#mask22_4_7391)">
<path d="M172.8 31.0996C173.9 31.0996 174.3 30.1995 174.3 29.1995C174.3 28.2995 174 27.2996 172.8 27.2996C171.7 27.2996 171.3 28.1995 171.3 29.1995C171.4 30.1995 171.7 31.0996 172.8 31.0996ZM172.8 26.0996C174.6 26.0996 175.9 27.2995 175.9 29.1995C175.9 31.0995 174.7 32.2996 172.8 32.2996C171 32.2996 169.7 31.0995 169.7 29.1995C169.7 27.2995 171 26.0996 172.8 26.0996Z" fill="#231F20"/>
</g>
<mask id="mask23_4_7391" style="mask-type:luminance" maskUnits="userSpaceOnUse" x="0" y="0" width="198" height="35">
<path d="M197.5 0.299805H0.400391V34.2998H197.5V0.299805Z" fill="white"/>
</mask>
<g mask="url(#mask23_4_7391)">
<path d="M179.8 31.0996C180.9 31.0996 181.3 30.1995 181.3 29.1995C181.3 28.2995 181 27.2996 179.8 27.2996C178.7 27.2996 178.3 28.1995 178.3 29.1995C178.3 30.1995 178.7 31.0996 179.8 31.0996ZM179.8 26.0996C181.6 26.0996 182.9 27.2995 182.9 29.1995C182.9 31.0995 181.7 32.2996 179.8 32.2996C178 32.2996 176.7 31.0995 176.7 29.1995C176.7 27.2995 177.9 26.0996 179.8 26.0996Z" fill="#231F20"/>
</g>
<path d="M185.5 24.0996H183.9V32.2996H185.5V24.0996Z" fill="#231F20"/>
<path d="M128.401 30.6992H122.301V32.3992H128.401V30.6992Z" fill="#231F20"/>
<mask id="mask24_4_7391" style="mask-type:luminance" maskUnits="userSpaceOnUse" x="0" y="0" width="198" height="35">
<path d="M197.5 0.299805H0.400391V34.2998H197.5V0.299805Z" fill="white"/>
</mask>
<g mask="url(#mask24_4_7391)">
<path d="M23.6006 24.2C23.5006 24.1 23.5006 24 23.4006 24H23.3006C23.0006 24.2 22.6006 24.5 22.2006 24.7C21.9006 24.9 21.5006 25.1999 21.1006 25.3999C20.0006 25.9999 18.6006 26.2 17.0006 26.2C14.5006 26.2 12.4006 25.1999 10.7006 23.3999C9.00062 21.4999 8.20062 19.3 8.20062 16.7C8.20062 14.2 9.1006 11.9001 10.8006 10.1001C12.6006 8.2001 14.7006 7.30005 17.1006 7.30005C18.6006 7.30005 20.0006 7.5999 21.4006 8.3999C21.7006 8.5999 22.1006 8.9 22.3006 9C22.5006 9.2 22.9006 9.3001 23.2006 9.6001C23.3006 9.7001 23.3006 9.69995 23.3006 9.69995C23.3006 9.69995 23.4006 9.7001 23.4006 9.6001L26.9006 4.19995C27.0006 3.99995 27.0006 3.9999 26.9006 3.8999C23.7006 1.5999 20.3006 0.5 16.8006 0.5C12.3006 0.5 8.40059 2.10005 5.10059 5.30005C1.80059 8.50005 0.100586 12.2999 0.100586 16.8999C0.100586 21.6999 1.70063 25.7 4.90063 28.8C8.10063 31.9 12.2006 33.3999 16.8006 33.3999C20.7006 33.3999 24.1006 32.3 26.9006 30C27.1006 29.8 27.1006 29.7 27.1006 29.7L23.6006 24.2Z" fill="#231F20"/>
</g>
<mask id="mask25_4_7391" style="mask-type:luminance" maskUnits="userSpaceOnUse" x="0" y="0" width="198" height="35">
<path d="M197.5 0.299805H0.400391V34.2998H197.5V0.299805Z" fill="white"/>
</mask>
<g mask="url(#mask25_4_7391)">
<path d="M49.7006 23.3997C47.9006 25.1997 45.7006 26.1997 43.1006 26.1997C40.6006 26.1997 38.3006 25.2997 36.5006 23.3997C34.7006 21.5997 33.8006 19.2998 33.8006 16.7998C33.8006 14.1998 34.7006 11.8999 36.5006 10.0999C38.3006 8.19985 40.5006 7.2998 43.1006 7.2998C45.6006 7.2998 47.9006 8.19985 49.7006 10.0999C51.5006 11.8999 52.4006 14.1998 52.4006 16.7998C52.4006 19.2998 51.5006 21.5997 49.7006 23.3997ZM55.1006 4.7998C51.8006 1.6998 47.8006 0.299805 43.2006 0.299805C38.4006 0.299805 34.5006 1.7998 31.2006 4.7998C27.8006 7.9998 26.1006 11.8998 26.1006 16.7998C26.1006 21.5998 27.8006 25.5997 31.2006 28.6997C34.5006 31.5997 38.5006 33.0999 43.2006 33.0999C47.9006 33.0999 51.9006 31.5997 55.1006 28.6997C58.5006 25.5997 60.2006 21.5997 60.2006 16.6997C60.2006 11.9997 58.5006 7.9998 55.1006 4.7998Z" fill="#231F20"/>
</g>
<mask id="mask26_4_7391" style="mask-type:luminance" maskUnits="userSpaceOnUse" x="0" y="0" width="198" height="35">
<path d="M197.5 0.299805H0.400391V34.2998H197.5V0.299805Z" fill="white"/>
</mask>
<g mask="url(#mask26_4_7391)">
<path d="M77.1003 15.6001C76.2003 16.6001 75.2004 17.2 73.7004 17.2C72.3004 17.2 71.2004 16.6001 70.3004 15.6001C69.5004 14.6001 69.1003 13.3 69.1003 11.7C69.1003 10.2 69.6004 8.90005 70.3004 7.80005C71.2004 6.80005 72.3004 6.19995 73.7004 6.19995C75.1004 6.19995 76.2004 6.80005 77.0004 7.80005C77.8004 8.80005 78.2004 10.1 78.2004 11.7C78.4004 13.3 78.0003 14.6001 77.1003 15.6001ZM81.8004 3.8999C79.6004 1.9999 77.0004 1 73.8004 1C70.6004 1 67.9004 1.9999 65.8004 3.8999C63.5004 5.8999 62.4004 8.40005 62.4004 11.8C62.4004 15.1 63.5004 17.7 65.8004 19.7C68.0004 21.6 70.7004 22.6001 73.8004 22.6001C77.0004 22.6001 79.7004 21.6 81.7004 19.7C84.0004 17.7 85.1003 15.2 85.1003 11.8C85.2003 8.50005 84.0004 5.9999 81.8004 3.8999Z" fill="#231F20"/>
</g>
<mask id="mask27_4_7391" style="mask-type:luminance" maskUnits="userSpaceOnUse" x="0" y="0" width="198" height="35">
<path d="M197.5 0.299805H0.400391V34.2998H197.5V0.299805Z" fill="white"/>
</mask>
<g mask="url(#mask27_4_7391)">
<path d="M107.7 26.3994H96.4H95.8V25.7996V1.09961C95.8 0.899609 95.8 0.899414 95.6 0.899414H88.7C88.5 0.899414 88.5 0.899609 88.5 1.09961V32.5996C88.5 32.7996 88.5 32.7996 88.7 32.7996H107.9C108.1 32.7996 108.1 32.7996 108.1 32.5996V26.6995C107.9 26.3995 107.9 26.3994 107.7 26.3994Z" fill="#231F20"/>
</g>
<mask id="mask28_4_7391" style="mask-type:luminance" maskUnits="userSpaceOnUse" x="0" y="0" width="198" height="35">
<path d="M197.5 0.299805H0.400391V34.2998H197.5V0.299805Z" fill="white"/>
</mask>
<g mask="url(#mask28_4_7391)">
<path d="M84.9004 25.7998H62.6003C62.4003 25.7998 62.4004 25.7998 62.4004 25.9998V32.8997C62.4004 33.0997 62.4003 33.0999 62.6003 33.0999H84.8004C85.0004 33.0999 85.0004 33.0997 85.0004 32.8997V25.9998C85.2004 25.7998 85.2004 25.7998 84.9004 25.7998Z" fill="#231F20"/>
</g>
</svg>
