<svg width="155" height="37" viewBox="0 0 155 37" fill="none" xmlns="http://www.w3.org/2000/svg">
<path d="M60 11.6006H62.3L66.3 21.7004H64L63.2 19.4004H59L58.2 21.7004H56L60 11.6006ZM61.2 13.7004L59.8 17.9004H62.8L61.2 13.7004Z" fill="#231F20"/>
<mask id="mask0_4_7274" style="mask-type:luminance" maskUnits="userSpaceOnUse" x="0" y="0" width="155" height="37">
<path d="M154.9 0.400391H0.400391V36.6006H154.9V0.400391Z" fill="white"/>
</mask>
<g mask="url(#mask0_4_7274)">
<path d="M67.4004 11.6H69.6004C71.8004 11.6 74.4004 11.4998 74.4004 14.3998C74.4004 15.5998 73.6004 16.6 72.3004 16.8C72.9004 16.8 73.1004 17.3998 73.4004 17.8998L75.1004 21.8998H72.8004L71.6004 18.8C71.4004 18.1 71.0004 17.6999 70.2004 17.6999H69.6004V21.8998H67.5004V11.6H67.4004ZM69.4004 15.9999H70.1004C71.1004 15.9999 72.3004 15.9 72.3004 14.6C72.3004 13.4 71.2004 13.3 70.1004 13.3H69.4004V15.9999Z" fill="#231F20"/>
</g>
<path d="M78.3004 13.2004H75.4004V11.6006H83.3004V13.2004H80.4004V21.9004H78.3004V13.2004Z" fill="#231F20"/>
<mask id="mask1_4_7274" style="mask-type:luminance" maskUnits="userSpaceOnUse" x="0" y="0" width="155" height="37">
<path d="M154.9 0.400391H0.400391V36.6006H154.9V0.400391Z" fill="white"/>
</mask>
<g mask="url(#mask1_4_7274)">
<path d="M90 13.6006C89.4 13.4006 88.7 13.1006 87.9 13.1006C87.2 13.1006 86.3 13.5005 86.3 14.5005C86.3 16.3005 90.8 15.5005 90.8 19.0005C90.8 21.3005 89 22.1006 86.9 22.1006C85.8 22.1006 85.3 22.0004 84.2 21.7004L84.4 19.9004C85.1 20.3004 85.8 20.5005 86.7 20.5005C87.4 20.5005 88.5 20.1004 88.5 19.2004C88.5 17.3004 84 18.1004 84 14.7004C84 12.4004 85.8 11.6006 87.6 11.6006C88.4 11.6006 89.3 11.7005 90 12.0005V13.6006Z" fill="#231F20"/>
</g>
<mask id="mask2_4_7274" style="mask-type:luminance" maskUnits="userSpaceOnUse" x="0" y="0" width="155" height="37">
<path d="M154.9 0.400391H0.400391V36.6006H154.9V0.400391Z" fill="white"/>
</mask>
<g mask="url(#mask2_4_7274)">
<path d="M103.9 21.7004C103.2 21.8004 102.3 22.1006 101.6 22.1006C98.3 22.1006 96 20.4005 96 17.0005C96 13.5005 98.2 11.6006 101.6 11.6006C102.3 11.6006 103.2 11.7006 103.9 12.1006L103.8 13.8005C103.1 13.3005 102.4 13.3005 101.6 13.3005C99.5 13.3005 98.2 14.9005 98.2 17.0005C98.2 19.1005 99.5 20.6006 101.7 20.6006C102.5 20.6006 103.4 20.5006 103.9 20.1006V21.7004Z" fill="#231F20"/>
</g>
<mask id="mask3_4_7274" style="mask-type:luminance" maskUnits="userSpaceOnUse" x="0" y="0" width="155" height="37">
<path d="M154.9 0.400391H0.400391V36.6006H154.9V0.400391Z" fill="white"/>
</mask>
<g mask="url(#mask3_4_7274)">
<path d="M109.8 11.5C112.9 11.5 114.7 13.7 114.7 16.7C114.7 19.7 112.9 22 109.8 22C106.5 22 104.9 19.8 104.9 16.7C104.9 13.6 106.6 11.5 109.8 11.5ZM109.8 20.5C111.9 20.5 112.7 18.7 112.7 16.8C112.7 15 111.9 13.2 109.8 13.2C107.7 13.2 106.9 15 106.9 16.8C106.9 18.5 107.8 20.5 109.8 20.5Z" fill="#231F20"/>
</g>
<mask id="mask4_4_7274" style="mask-type:luminance" maskUnits="userSpaceOnUse" x="0" y="0" width="155" height="37">
<path d="M154.9 0.400391H0.400391V36.6006H154.9V0.400391Z" fill="white"/>
</mask>
<g mask="url(#mask4_4_7274)">
<path d="M116.2 11.6006H118.3V17.5005C118.3 19.2005 118.9 20.4004 120.5 20.4004C122.1 20.4004 122.7 19.3005 122.7 17.5005V11.6006H124.8V18.1006C124.8 20.9006 123.2 22.0005 120.7 22.0005C118 22.0005 116.6 20.9006 116.6 18.1006V11.6006H116.2Z" fill="#231F20"/>
</g>
<path d="M126 11.6006H128.5L132.4 19.2004V11.6006H134.5V21.9004H131.9L128.1 14.2004H127.9V21.9004H126V11.6006Z" fill="#231F20"/>
<mask id="mask5_4_7274" style="mask-type:luminance" maskUnits="userSpaceOnUse" x="0" y="0" width="155" height="37">
<path d="M154.9 0.400391H0.400391V36.6006H154.9V0.400391Z" fill="white"/>
</mask>
<g mask="url(#mask5_4_7274)">
<path d="M143.6 21.7004C142.9 21.8004 142 22.1006 141.3 22.1006C138 22.1006 135.7 20.4005 135.7 17.0005C135.7 13.5005 137.9 11.6006 141.3 11.6006C142 11.6006 142.9 11.7006 143.6 12.1006L143.5 13.8005C142.8 13.3005 142.1 13.3005 141.3 13.3005C139.2 13.3005 137.9 14.9005 137.9 17.0005C137.9 19.1005 139.2 20.6006 141.4 20.6006C142.2 20.6006 143.2 20.5006 143.6 20.1006V21.7004Z" fill="#231F20"/>
</g>
<path d="M147.3 11.6006H145.2V21.7004H147.3V11.6006Z" fill="#231F20"/>
<path d="M148.801 11.6006V21.9004H154.801V20.2004H150.901V11.6006H148.801Z" fill="#231F20"/>
<path d="M56.1006 26.2002V36.5002H62.2006V34.8003H58.2006V32.0002H61.8006V30.4001H58.2006V27.8003H62.2006V26.2002H56.1006Z" fill="#231F20"/>
<path d="M70.2004 26.2002V33.9001L66.4004 26.2002H63.9004V36.5002H65.8004V28.8003L69.8004 36.5002H72.2004V26.2002H70.2004Z" fill="#231F20"/>
<mask id="mask6_4_7274" style="mask-type:luminance" maskUnits="userSpaceOnUse" x="0" y="0" width="155" height="37">
<path d="M154.9 0.400391H0.400391V36.6006H154.9V0.400391Z" fill="white"/>
</mask>
<g mask="url(#mask6_4_7274)">
<path d="M82.1 28.2004C81.3 27.8004 80.3 27.7004 79.4 27.7004C77 27.7004 75.7 29.3004 75.7 31.4004C75.7 33.5004 77 35.0005 79.2 35.0005C79.8 35.0005 80.2 35.0004 80.5 34.9004V32.2004H78.3V30.5005H82.4V35.9004C81.3 36.1004 80.2 36.4004 79.1 36.4004C75.8 36.4004 73.5 34.7005 73.5 31.3005C73.5 27.8005 75.7 25.9004 79.1 25.9004C80.3 25.9004 81.3 26.0004 82.1 26.4004V28.2004Z" fill="#231F20"/>
</g>
<path d="M84.1006 26.2002V36.5002H90.2006V34.8003H86.2006V26.2002H84.1006Z" fill="#231F20"/>
<path d="M96.1 28.3003L97.5 32.5002H94.5L96.1 28.3003ZM95 26.2002L91 36.3003H93.2L94 34.0002H98.1L98.9 36.3003H101.2L97.2 26.2002H95Z" fill="#231F20"/>
<path d="M108.7 26.2002V33.9001L104.8 26.2002H102.4V36.5002H104.3V28.8003L108.1 36.5002H110.7V26.2002H108.7Z" fill="#231F20"/>
<mask id="mask7_4_7274" style="mask-type:luminance" maskUnits="userSpaceOnUse" x="0" y="0" width="155" height="37">
<path d="M154.9 0.400391H0.400391V36.6006H154.9V0.400391Z" fill="white"/>
</mask>
<g mask="url(#mask7_4_7274)">
<path d="M112.4 26.2002H115.2C118.3 26.2002 121.1 27.3003 121.1 31.3003C121.1 35.3003 118.3 36.4001 115.2 36.4001H112.4V26.2002ZM114.4 34.8003H115.5C117.2 34.8003 118.9 33.5003 118.9 31.3003C118.9 29.1003 117.2 27.8003 115.5 27.8003H114.4V34.8003Z" fill="#231F20"/>
</g>
<mask id="mask8_4_7274" style="mask-type:luminance" maskUnits="userSpaceOnUse" x="0" y="0" width="155" height="37">
<path d="M154.9 0.400391H0.400391V36.6006H154.9V0.400391Z" fill="white"/>
</mask>
<g mask="url(#mask8_4_7274)">
<path d="M56.3008 5.70068C56.5008 5.80068 56.9008 5.90063 57.3008 5.90063C58.0008 5.90063 58.7008 5.50068 58.7008 4.70068C58.7008 3.40068 56.6008 3.40073 56.6008 2.50073C56.6008 1.80073 57.1008 1.50073 57.6008 1.50073C57.8008 1.50073 58.2008 1.50083 58.4008 1.60083L58.5008 1.20068C58.1008 1.10068 57.9008 1.10083 57.7008 1.10083C56.9008 1.10083 56.3008 1.60078 56.3008 2.30078C56.3008 3.50078 58.4008 3.60073 58.4008 4.50073C58.4008 5.10073 57.9008 5.50073 57.4008 5.50073C57.0008 5.50073 56.7008 5.40078 56.4008 5.30078L56.3008 5.70068ZM62.2008 2.60083H61.8008V4.40063C61.8008 5.00063 61.6008 5.60083 60.8008 5.60083C60.2008 5.60083 60.1008 5.20083 60.1008 4.60083V2.50073H59.7008V4.60083C59.7008 5.30083 60.1008 5.80078 60.8008 5.80078C61.5008 5.80078 61.8008 5.40068 61.9008 5.20068V5.80078H62.3008C62.3008 5.60078 62.3008 5.30083 62.3008 5.10083V2.60083H62.2008ZM63.3008 7.20068H63.7008V5.30078C63.9008 5.80078 64.2008 5.90063 64.7008 5.90063C65.5008 5.90063 66.0008 5.20068 66.0008 4.20068C66.0008 3.20068 65.6008 2.50073 64.7008 2.50073C64.0008 2.50073 63.7008 3.00068 63.6008 3.20068V2.60083H63.2008V7.20068H63.3008ZM65.5008 4.20068C65.5008 4.80068 65.3008 5.50073 64.5008 5.50073C63.7008 5.50073 63.5008 4.80068 63.5008 4.20068C63.5008 3.60068 63.7008 2.90063 64.5008 2.90063C65.3008 2.90063 65.5008 3.60068 65.5008 4.20068ZM66.9008 7.20068H67.3008V5.30078C67.5008 5.80078 67.8008 5.90063 68.3008 5.90063C69.1008 5.90063 69.6008 5.20068 69.6008 4.20068C69.6008 3.20068 69.2008 2.50073 68.3008 2.50073C67.6008 2.50073 67.3008 3.00068 67.2008 3.20068V2.60083H66.8008V7.20068H66.9008ZM69.3008 4.20068C69.3008 4.80068 69.1008 5.50073 68.3008 5.50073C67.6008 5.50073 67.3008 4.80068 67.3008 4.20068C67.3008 3.60068 67.5008 2.90063 68.3008 2.90063C69.0008 2.80063 69.3008 3.60068 69.3008 4.20068ZM70.4008 4.20068C70.4008 5.00068 70.9008 5.90063 72.0008 5.90063C73.1008 5.90063 73.6008 5.10068 73.6008 4.20068C73.6008 3.30068 73.1008 2.50073 72.0008 2.50073C70.9008 2.50073 70.4008 3.30068 70.4008 4.20068ZM70.9008 4.20068C70.9008 3.50068 71.3008 2.90063 72.0008 2.90063C72.7008 2.90063 73.1008 3.50068 73.1008 4.20068C73.1008 4.90068 72.7008 5.50073 72.0008 5.50073C71.2008 5.60073 70.9008 5.00068 70.9008 4.20068ZM74.4008 5.90063H74.8008V4.30078C74.8008 3.70078 74.9008 3.00073 75.6008 3.00073C75.7008 3.00073 75.8008 3.00073 75.8008 3.00073V2.50073C75.7008 2.50073 75.6008 2.50073 75.6008 2.50073C75.2008 2.50073 74.9008 2.90068 74.8008 3.20068V2.60083H74.4008C74.4008 2.80083 74.4008 3.00078 74.4008 3.30078V5.90063ZM78.1008 2.60083H77.4008V1.60083L77.0008 1.70068V2.50073H76.4008V2.90063H77.0008V4.80078C77.0008 5.40078 77.0008 5.90063 77.7008 5.90063C77.9008 5.90063 78.1008 5.90078 78.2008 5.80078V5.40063C78.1008 5.40063 78.0008 5.50073 77.8008 5.50073C77.4008 5.50073 77.3008 5.30073 77.3008 5.00073V2.80078H78.0008C78.1008 3.00078 78.1008 2.60083 78.1008 2.60083ZM81.1008 5.40063C80.9008 5.50063 80.5008 5.60083 80.1008 5.60083C79.4008 5.60083 79.0008 5.00063 79.0008 4.40063H81.3008V4.20068C81.3008 3.40068 80.9008 2.60083 80.0008 2.60083C79.2008 2.60083 78.7008 3.30078 78.7008 4.30078C78.7008 5.30078 79.1008 6.00073 80.1008 6.00073C80.3008 6.00073 80.8008 5.90078 81.1008 5.80078V5.40063ZM79.2008 3.90063C79.2008 3.40063 79.6008 2.80078 80.2008 2.80078C80.8008 2.80078 81.0008 3.40063 81.0008 3.90063H79.2008ZM84.9008 1.00073H84.5008V3.10083C84.5008 3.00083 84.1008 2.50073 83.5008 2.50073C82.5008 2.50073 82.2008 3.20068 82.2008 4.20068C82.2008 5.20068 82.7008 5.90063 83.5008 5.90063C84.0008 5.90063 84.3008 5.70078 84.5008 5.30078V5.80078H84.9008V1.00073ZM82.6008 4.20068C82.6008 3.60068 82.8008 2.90063 83.6008 2.90063C84.3008 2.90063 84.6008 3.60068 84.6008 4.20068C84.6008 4.80068 84.4008 5.50073 83.6008 5.50073C82.7008 5.60073 82.6008 4.90068 82.6008 4.20068ZM89.7008 2.60083H89.3008V4.40063C89.3008 5.00063 89.1008 5.60083 88.3008 5.60083C87.7008 5.60083 87.6008 5.20083 87.6008 4.60083V2.50073H87.2008V4.60083C87.2008 5.30083 87.6008 5.80078 88.3008 5.80078C89.0008 5.80078 89.3008 5.40068 89.4008 5.20068V5.80078H89.6008C89.6008 5.60078 89.6008 5.30083 89.6008 5.10083V2.60083H89.7008ZM90.4008 5.70068C90.6008 5.80068 91.0008 5.80078 91.4008 5.80078C91.9008 5.80078 92.5008 5.60078 92.5008 4.80078C92.5008 3.70078 90.9008 3.80068 90.9008 3.20068C90.9008 2.80068 91.1008 2.60083 91.6008 2.60083C91.8008 2.60083 92.1008 2.60068 92.3008 2.70068V2.30078C92.1008 2.20078 91.7008 2.20068 91.5008 2.20068C91.0008 2.20068 90.4008 2.40073 90.4008 3.00073C90.4008 4.00073 92.0008 3.80083 92.0008 4.60083C92.0008 5.00083 91.6008 5.20068 91.3008 5.20068C90.9008 5.20068 90.7008 5.10073 90.5008 5.00073V5.70068H90.4008ZM93.3008 5.90063H93.7008V2.60083H93.3008V5.90063ZM93.7008 1.10083H93.3008V1.60083H93.7008V1.10083ZM94.7008 5.90063H95.1008V4.10083C95.1008 3.50083 95.3008 2.90063 96.1008 2.90063C96.7008 2.90063 96.8008 3.30063 96.8008 3.90063V5.80078H97.2008V3.70068C97.2008 3.00068 96.8008 2.50073 96.1008 2.50073C95.4008 2.50073 95.1008 2.90083 95.0008 3.10083V2.60083H94.6008C94.6008 2.80083 94.6008 3.10078 94.6008 3.30078V5.80078H94.7008V5.90063ZM98.7008 4.20068C98.7008 3.60068 98.9008 2.90063 99.7008 2.90063C100.401 2.90063 100.701 3.50068 100.701 4.20068C100.701 4.80068 100.501 5.50073 99.7008 5.50073C99.0008 5.50073 98.7008 4.90068 98.7008 4.20068ZM101.001 2.60083H100.601V3.00073C100.201 2.60073 100.001 2.50073 99.6008 2.50073C98.6008 2.50073 98.3008 3.20068 98.3008 4.20068C98.3008 4.90068 98.7008 5.90063 99.6008 5.90063C100.001 5.90063 100.301 5.80078 100.601 5.30078C100.601 6.30078 100.501 7.00073 99.5008 7.00073C99.1008 7.00073 98.8008 6.90078 98.5008 6.80078V7.20068C98.6008 7.20068 99.1008 7.30078 99.5008 7.30078C100.601 7.30078 101.101 6.60083 101.101 5.60083V2.70068H101.001V2.60083ZM103.201 7.20068H103.601V5.30078C103.801 5.80078 104.101 5.90063 104.601 5.90063C105.401 5.90063 105.901 5.20068 105.901 4.20068C105.901 3.20068 105.501 2.50073 104.601 2.50073C103.901 2.50073 103.601 3.00068 103.501 3.20068V2.60083H103.101V7.20068H103.201ZM105.601 4.20068C105.601 4.80068 105.401 5.50073 104.601 5.50073C103.901 5.50073 103.601 4.80068 103.601 4.20068C103.601 3.60068 103.801 2.90063 104.601 2.90063C105.401 2.80063 105.601 3.60068 105.601 4.20068ZM109.501 2.60083H109.101V4.40063C109.101 5.00063 108.901 5.60083 108.101 5.60083C107.501 5.60083 107.401 5.20083 107.401 4.60083V2.50073H107.001V4.60083C107.001 5.30083 107.401 5.80078 108.101 5.80078C108.801 5.80078 109.101 5.40068 109.201 5.20068V5.80078H109.601C109.601 5.60078 109.601 5.30083 109.601 5.10083V2.60083H109.501ZM110.601 5.90063H111.001V5.40063C111.201 5.80063 111.601 6.00073 112.001 6.00073C112.801 6.00073 113.301 5.30078 113.301 4.30078C113.301 3.30078 112.901 2.60083 112.001 2.60083C111.401 2.60083 111.001 3.10068 111.001 3.20068V1.00073H110.601V5.90063ZM112.801 4.20068C112.801 4.80068 112.601 5.50073 111.801 5.50073C111.101 5.50073 110.801 4.80068 110.801 4.20068C110.801 3.60068 111.001 2.90063 111.801 2.90063C112.701 2.80063 112.801 3.60068 112.801 4.20068ZM114.301 5.90063H114.701V1.10083H114.301V5.90063ZM115.701 5.90063H116.101V2.60083H115.701V5.90063ZM116.101 1.10083H115.701V1.60083H116.101V1.10083ZM119.401 2.60083C119.301 2.60083 119.001 2.50073 118.601 2.50073C117.601 2.50073 117.001 3.20068 117.001 4.20068C117.001 5.20068 117.501 5.90063 118.601 5.90063C119.001 5.90063 119.201 5.90078 119.401 5.80078V5.40063C119.201 5.50063 118.901 5.50073 118.701 5.50073C118.001 5.50073 117.501 4.90068 117.501 4.20068C117.501 3.40068 118.001 2.90063 118.701 2.90063C118.901 2.90063 119.201 3.00073 119.401 3.00073V2.60083ZM121.701 5.90063H122.101V3.00073H122.801V2.60083H122.001V2.20068C122.001 1.80068 122.001 1.20068 122.501 1.20068C122.601 1.20068 122.701 1.20078 122.901 1.30078V0.900635C122.801 0.900635 122.701 0.800781 122.501 0.800781C121.701 0.800781 121.701 1.50083 121.701 2.10083V2.30078H121.101V2.70068H121.701V5.90063ZM126.101 2.60083H125.701V4.40063C125.701 5.00063 125.501 5.60083 124.701 5.60083C124.101 5.60083 124.001 5.20083 124.001 4.60083V2.50073H123.601V4.60083C123.601 5.30083 124.001 5.80078 124.701 5.80078C125.401 5.80078 125.701 5.40068 125.801 5.20068V5.80078H126.201C126.201 5.60078 126.201 5.30083 126.201 5.10083V2.60083H126.101ZM127.201 5.90063H127.601V4.10083C127.601 3.50083 127.801 2.90063 128.601 2.90063C129.201 2.90063 129.301 3.30063 129.301 3.90063V5.80078H129.701V3.70068C129.701 3.00068 129.301 2.50073 128.601 2.50073C127.901 2.50073 127.601 2.90083 127.501 3.10083V2.60083H127.101C127.101 2.80083 127.101 3.10078 127.101 3.30078V5.80078H127.201V5.90063ZM133.501 1.00073H133.101V3.10083C133.101 3.00083 132.701 2.50073 132.101 2.50073C131.101 2.50073 130.801 3.20068 130.801 4.20068C130.801 5.20068 131.301 5.90063 132.101 5.90063C132.601 5.90063 132.901 5.70078 133.101 5.30078V5.80078H133.501V1.00073ZM131.101 4.20068C131.101 3.60068 131.301 2.90063 132.101 2.90063C132.901 2.90063 133.101 3.60068 133.101 4.20068C133.101 4.80068 132.901 5.50073 132.101 5.50073C131.301 5.60073 131.101 4.90068 131.101 4.20068ZM134.601 5.90063H135.001V2.60083H134.601V5.90063ZM134.901 1.10083H134.501V1.60083H134.901V1.10083ZM136.001 5.90063H136.401V4.10083C136.401 3.50083 136.601 2.90063 137.401 2.90063C138.001 2.90063 138.101 3.30063 138.101 3.90063V5.80078H138.501V3.70068C138.501 3.00068 138.101 2.50073 137.401 2.50073C136.701 2.50073 136.401 2.90083 136.301 3.10083V2.60083H135.901C135.901 2.80083 135.901 3.10078 135.901 3.30078V5.80078H136.001V5.90063ZM139.901 4.20068C139.901 3.60068 140.101 2.90063 140.901 2.90063C141.701 2.90063 141.901 3.50068 141.901 4.20068C141.901 4.80068 141.701 5.50073 140.901 5.50073C140.101 5.50073 139.901 4.90068 139.901 4.20068ZM142.301 2.60083H141.901V3.00073C141.701 2.60073 141.301 2.50073 140.901 2.50073C139.901 2.50073 139.601 3.20068 139.601 4.20068C139.601 4.90068 140.001 5.90063 140.901 5.90063C141.301 5.90063 141.601 5.80078 141.901 5.30078C141.901 6.30078 141.801 7.00073 140.801 7.00073C140.401 7.00073 140.101 6.90078 139.801 6.80078V7.20068C139.901 7.20068 140.401 7.30078 140.801 7.30078C141.901 7.30078 142.401 6.60083 142.401 5.60083V2.70068H142.301V2.60083ZM144.501 5.90063H144.901V5.40063C145.101 5.80063 145.501 6.00073 145.901 6.00073C146.701 6.00073 147.201 5.30078 147.201 4.30078C147.201 3.30078 146.801 2.60083 145.901 2.60083C145.301 2.60083 144.901 3.10068 144.901 3.20068V1.00073H144.501V5.90063ZM146.801 4.20068C146.801 4.80068 146.601 5.50073 145.801 5.50073C145.101 5.50073 144.801 4.80068 144.801 4.20068C144.801 3.60068 145.001 2.90063 145.801 2.90063C146.601 2.80063 146.801 3.60068 146.801 4.20068ZM148.101 2.60083H147.601L148.801 5.90063L148.701 6.10083C148.601 6.60083 148.501 6.80078 148.101 6.80078C148.001 6.80078 147.901 6.80078 147.901 6.80078V7.20068C148.001 7.20068 148.101 7.20068 148.401 7.20068C148.901 7.20068 149.101 6.70063 149.201 6.40063L150.501 2.70068H150.001L149.001 5.50073L148.101 2.60083Z" fill="#231F20"/>
</g>
<path d="M1.20041 19.4004L3.1004 18.8005V19.9004L1.20041 19.4004ZM0.400391 18.8005V20.0005L5.0004 21.3005V20.2004L4.0004 20.0005V18.6006L5.0004 18.2004V17.1006L0.400391 18.8005Z" fill="#231F20"/>
<mask id="mask9_4_7274" style="mask-type:luminance" maskUnits="userSpaceOnUse" x="0" y="0" width="155" height="37">
<path d="M154.9 0.400391H0.400391V36.6006H154.9V0.400391Z" fill="white"/>
</mask>
<g mask="url(#mask9_4_7274)">
<path d="M1.80078 13.7006L1.90079 13.3007C2.00079 12.7007 2.5008 12.8007 2.6008 12.8007C3.0008 12.9007 3.10079 13.2007 3.00079 13.5007L2.90079 13.9006L1.80078 13.7006ZM5.1008 15.9006L5.50079 14.9006L3.70081 14.3007C3.80081 13.9007 3.80079 13.8007 4.50079 13.8007H5.80078L6.20081 12.7006H4.6008C4.0008 12.7006 3.8008 12.8008 3.6008 13.1008C3.7008 12.3008 3.00079 11.9006 2.90079 11.9006C2.10079 11.7006 1.60078 12.1006 1.30078 12.9006L0.800781 14.5007L5.1008 15.9006Z" fill="#231F20"/>
</g>
<path d="M7.00018 11.4004L7.60019 10.4004L4.60019 8.40039L5.2002 7.50049L4.50018 7.10059L2.7002 9.60059L3.40018 10.1006L4.00018 9.20044L7.00018 11.4004Z" fill="#231F20"/>
<mask id="mask10_4_7274" style="mask-type:luminance" maskUnits="userSpaceOnUse" x="0" y="0" width="155" height="37">
<path d="M154.9 0.400391H0.400391V36.6006H154.9V0.400391Z" fill="white"/>
</mask>
<g mask="url(#mask10_4_7274)">
<path d="M7.9006 3.90039C7.5006 4.10039 7.3006 4.10049 6.9006 4.50049C5.7006 5.50049 6.40061 6.40059 6.50061 6.60059C7.60061 7.80059 8.7006 6.40059 9.3006 7.10059C9.5006 7.30059 9.40062 7.70039 9.20062 7.90039C8.80062 8.10039 8.60062 8.30039 8.20062 8.40039L8.70062 9.10059C8.90062 9.00059 9.3006 8.90049 9.8006 8.50049C10.5006 7.90049 10.6006 7.10039 10.2006 6.40039C9.10062 5.20039 8.00061 6.60039 7.50061 5.90039C7.30061 5.70039 7.40062 5.30044 7.60062 5.20044C7.80062 5.00044 8.2006 4.80054 8.4006 4.80054L7.9006 3.90039Z" fill="#231F20"/>
</g>
<mask id="mask11_4_7274" style="mask-type:luminance" maskUnits="userSpaceOnUse" x="0" y="0" width="155" height="37">
<path d="M154.9 0.400391H0.400391V36.6006H154.9V0.400391Z" fill="white"/>
</mask>
<g mask="url(#mask11_4_7274)">
<path d="M16.2003 0.700694C16.0003 0.700694 15.6003 0.600694 15.0003 0.700694C14.0003 0.900694 13.2003 1.80074 13.6003 3.50074C14.0003 4.90074 15.0003 5.70079 16.3003 5.30079C16.9003 5.20079 17.3003 4.90065 17.4003 4.90065L17.2003 3.90065C17.1003 4.00065 16.8003 4.30065 16.4003 4.40065C15.7003 4.50065 15.1003 4.00069 15.0003 3.20069C14.8003 2.40069 15.1003 1.60074 15.8003 1.50074C16.3003 1.40074 16.6003 1.50074 16.8003 1.50074L16.2003 0.700694Z" fill="#231F20"/>
</g>
<mask id="mask12_4_7274" style="mask-type:luminance" maskUnits="userSpaceOnUse" x="0" y="0" width="155" height="37">
<path d="M154.9 0.400391H0.400391V36.6006H154.9V0.400391Z" fill="white"/>
</mask>
<g mask="url(#mask12_4_7274)">
<path d="M19.7003 2.70011C19.8003 1.90011 20.1003 1.1002 20.8003 1.3002C21.4003 1.4002 21.5003 2.10015 21.4003 3.00015C21.3003 3.80015 21.0003 4.60006 20.3003 4.40006C19.7003 4.30006 19.6003 3.60011 19.7003 2.70011ZM18.6003 2.60025C18.5003 3.90025 19.0003 5.00025 20.3003 5.10025C21.6003 5.20025 22.4003 4.40015 22.5003 3.00015C22.6003 1.70015 22.1003 0.600154 20.8003 0.500154C19.4003 0.300154 18.7003 1.30025 18.6003 2.60025Z" fill="#231F20"/>
</g>
<mask id="mask13_4_7274" style="mask-type:luminance" maskUnits="userSpaceOnUse" x="0" y="0" width="155" height="37">
<path d="M154.9 0.400391H0.400391V36.6006H154.9V0.400391Z" fill="white"/>
</mask>
<g mask="url(#mask13_4_7274)">
<path d="M24.0006 4.2002C23.5006 5.2002 23.8006 6.00024 24.7006 6.50024C25.7006 7.00024 26.5006 6.7002 27.0006 5.7002L28.3006 3.2002L27.3006 2.7002L25.9006 5.50024C25.7006 5.90024 25.4006 6.10015 25.1006 5.90015C24.7006 5.70015 24.7006 5.40015 24.9006 4.90015L26.3006 2.10034L25.3006 1.7002L24.0006 4.2002Z" fill="#231F20"/>
</g>
<path d="M27.3008 7.90063L27.9008 8.60083L30.3008 6.30078L28.9008 9.60083L29.8008 10.4006L33.1008 7.30078L32.4008 6.60083L30.1008 8.90063L31.5008 5.60083L30.5008 4.80078L27.3008 7.90063Z" fill="#231F20"/>
<mask id="mask14_4_7274" style="mask-type:luminance" maskUnits="userSpaceOnUse" x="0" y="0" width="155" height="37">
<path d="M154.9 0.400391H0.400391V36.6006H154.9V0.400391Z" fill="white"/>
</mask>
<g mask="url(#mask14_4_7274)">
<path d="M35.7006 12.4007C35.7006 12.2007 35.7005 11.8007 35.3005 11.2007C34.9005 10.4007 33.9005 9.6007 32.3005 10.4007C31.0005 11.0007 30.5005 12.2007 31.1005 13.4007C31.3005 13.9007 31.6005 14.2007 31.7005 14.4007L32.5005 13.9007C32.4005 13.8007 32.1005 13.7007 31.9005 13.2007C31.7005 12.6007 31.9005 11.9008 32.7005 11.5008C33.5005 11.1008 34.3005 11.3007 34.6005 11.9007C34.8005 12.4007 34.8005 12.6007 34.7005 12.9007L35.7006 12.4007Z" fill="#231F20"/>
</g>
<path d="M36.5331 14.8648L32.0039 15.668L32.196 16.7511L36.7251 15.948L36.5331 14.8648Z" fill="#231F20"/>
<path d="M32.4002 18.5L32.2002 21.2H33.1002V19.7L36.8002 20L36.9002 18.8999L32.4002 18.5Z" fill="#231F20"/>
<path d="M4.5 29.3003L5.79999 30.7002L6 30.5002L5 29.3003L6.39999 28.1003L7.39999 29.3003L7.60001 29.0002L6.70001 27.8003L8 26.9001L8.89999 28.1003L9.20001 27.7002L8 26.2002L4.5 29.3003Z" fill="#231F20"/>
<path d="M7.7002 32.6008L8.00018 32.8008L10.3002 29.5007L9.7002 33.9006L10.0002 34.2007L12.6002 30.4006L12.3002 30.2007L10.0002 33.6008L10.8002 29.1008L10.3002 28.8008L7.7002 32.6008Z" fill="#231F20"/>
<mask id="mask15_4_7274" style="mask-type:luminance" maskUnits="userSpaceOnUse" x="0" y="0" width="155" height="37">
<path d="M154.9 0.400391H0.400391V36.6006H154.9V0.400391Z" fill="white"/>
</mask>
<g mask="url(#mask15_4_7274)">
<path d="M14.7005 33.701L15.5005 33.901L15.0005 35.5011C14.8005 35.5011 14.6005 35.5011 14.4005 35.5011C13.2005 35.1011 13.2005 33.901 13.4005 33.201C13.8005 31.901 14.7005 31.6011 15.5005 31.8011C15.9005 31.9011 16.2005 32.2011 16.3005 32.3011L16.4005 31.901C16.3005 31.801 15.9005 31.501 15.6005 31.401C14.4005 31.001 13.4005 31.9012 13.1005 33.1012C12.9005 33.9012 12.9005 35.5011 14.3005 36.0011C14.7005 36.1011 15.0005 36.1011 15.4005 36.0011L16.0005 33.8011L14.8005 33.401L14.7005 33.701Z" fill="#231F20"/>
</g>
<path d="M18.1006 31.8008V36.4006H20.0006V36.0007H18.5006V31.8008H18.1006Z" fill="#231F20"/>
<path d="M22.3004 31.7002L23.7004 33.9001L22.1004 34.4001L22.3004 31.7002ZM22.1004 31.3003L21.9004 36.1003L22.3004 36.0002V34.7002L24.1004 34.2002L24.8004 35.3003L25.2004 35.2002L22.4004 31.2002L22.1004 31.3003Z" fill="#231F20"/>
<path d="M27.2006 34.2007L27.4006 34.0007L25.2006 30.6008L29.1006 32.9006L29.5006 32.6008L27.0006 28.8008L26.7006 29.0007L29.0006 32.4006H28.9006L25.1006 30.1008L24.6006 30.4006L27.2006 34.2007Z" fill="#231F20"/>
<mask id="mask16_4_7274" style="mask-type:luminance" maskUnits="userSpaceOnUse" x="0" y="0" width="155" height="37">
<path d="M154.9 0.400391H0.400391V36.6006H154.9V0.400391Z" fill="white"/>
</mask>
<g mask="url(#mask16_4_7274)">
<path d="M28.7002 27.6005L28.9002 27.4003C29.9002 26.2003 30.8002 26.8005 31.4002 27.3005C32.2002 28.0005 32.6002 28.9004 31.9002 29.7004L31.7002 30.1005L28.7002 27.6005ZM31.8002 30.5004L32.3002 29.9003C33.1002 28.7003 32.8002 27.6005 31.7002 26.8005C30.5002 25.8005 29.5002 26.0004 28.6002 27.2004L28.2002 27.8005L31.8002 30.5004Z" fill="#231F20"/>
</g>
<path d="M46.7002 0.400391H46.2002V36.5005H46.7002V0.400391Z" fill="#231F20"/>
</svg>
