<svg width="34" height="27" viewBox="0 0 34 27" fill="none" xmlns="http://www.w3.org/2000/svg">
<path d="M1.10059 4.59979C6.30059 7.49979 11.4006 10.4998 16.6006 13.3998C16.9006 13.5998 17.2006 13.5998 17.5006 13.3998C20.3006 11.6998 23.2006 10.0998 26.0006 8.39984C28.3006 6.99984 30.7006 5.5998 33.0006 4.2998C33.3006 4.0998 33.5006 3.89982 33.4006 3.49982C33.4006 2.99982 33.4006 2.39984 33.4006 1.89984C33.4006 1.29984 33.0006 0.899805 32.4006 0.799805C32.2006 0.799805 32.0006 0.799805 31.9006 0.799805C26.9006 0.799805 21.9006 0.799805 17.0006 0.799805C12.0006 0.799805 7.00059 0.799805 2.10059 0.799805C1.90059 0.799805 1.80059 0.799805 1.60059 0.799805C1.00059 0.899805 0.600586 1.29984 0.600586 1.89984C0.600586 2.49984 0.600586 2.99979 0.600586 3.59979C0.600586 4.09979 0.700586 4.39979 1.10059 4.59979Z" fill="black"/>
<path d="M21.9009 14.5997C21.7009 14.2997 21.5009 14.2997 21.2009 14.4997C20.1009 15.0997 19.1009 15.7998 18.0009 16.3998C17.4009 16.6998 16.9009 16.6998 16.3009 16.3998C15.4009 15.8998 14.4009 15.2997 13.5009 14.7997C13.2009 14.5997 13.0009 14.6998 12.8009 14.8998C9.0009 18.3998 5.2009 21.9997 1.4009 25.4997C1.3009 25.5997 1.30092 25.5998 1.20092 25.6998C1.00092 25.8998 1.0009 26.0998 1.3009 26.1998C1.6009 26.2998 1.80092 26.2997 2.10092 26.2997C7.00092 26.2997 12.0009 26.2997 16.9009 26.2997C21.9009 26.2997 26.9009 26.2997 31.8009 26.2997C32.0009 26.2997 32.2009 26.1997 32.4009 26.0997C32.3009 25.8997 32.3009 25.6997 32.2009 25.5997C28.7009 21.9997 25.3009 18.2997 21.9009 14.5997Z" fill="black"/>
<path d="M33.5006 8C33.5006 7.8 33.4006 7.6 33.4006 7.5C33.2006 7.5 33.0006 7.60001 32.9006 7.70001C30.2006 9.30001 27.5006 10.9 24.7006 12.5C24.0006 12.9 24.0006 12.9 24.5006 13.5C27.3006 16.5 30.1006 19.5 32.9006 22.5C33.0006 22.6 33.2006 22.7 33.4006 22.8C33.5006 22.6 33.6006 22.5 33.6006 22.3C33.6006 19.9 33.6006 17.6 33.6006 15.2C33.5006 12.7 33.5006 10.4 33.5006 8Z" fill="black"/>
<path d="M10.2006 13.4999C10.5006 13.1999 10.5006 13.0999 10.1006 12.7999C7.10059 11.0999 4.20059 9.39996 1.20059 7.69996C0.700592 7.39996 0.600586 7.49992 0.600586 8.09992C0.600586 10.2999 0.600586 12.5999 0.600586 14.7999C0.600586 17.0999 0.600586 19.2999 0.600586 21.5999C0.600586 21.6999 0.700568 21.8999 0.800568 21.9999C0.900568 21.8999 1.10059 21.8999 1.20059 21.7999C4.20059 19.0999 7.20059 16.2999 10.2006 13.4999Z" fill="black"/>
</svg>
