<svg width="15" height="29" viewBox="0 0 15 29" fill="none" xmlns="http://www.w3.org/2000/svg">
<path d="M4.40019 28.2005C4.40019 24.3005 4.40019 20.4005 4.40019 16.5005C4.40019 16.3005 4.40019 16.0005 4.40019 15.7005C3.00019 15.7005 1.6002 15.7005 0.200195 15.7005C0.200195 14.1005 0.200195 12.5005 0.200195 10.9005C1.6002 10.9005 2.90019 10.9005 4.40019 10.9005C4.40019 9.70052 4.40019 8.6005 4.40019 7.5005C4.40019 6.8005 4.4002 6.10052 4.6002 5.40052C5.2002 2.90052 7.0002 1.2005 9.6002 1.0005C11.0002 0.900499 12.4002 1.0005 13.8002 1.0005C14.0002 1.0005 14.2002 1.10047 14.4002 1.10047C14.4002 2.50047 14.4002 3.90052 14.4002 5.40052C13.8002 5.40052 13.2002 5.40052 12.5002 5.40052C12.0002 5.40052 11.4002 5.4005 10.9002 5.5005C10.1002 5.6005 9.5002 6.2005 9.5002 7.0005C9.4002 8.3005 9.5002 9.50052 9.5002 10.9005C11.1002 10.9005 12.6002 10.9005 14.3002 10.9005C14.1002 12.5005 13.9002 14.1005 13.7002 15.7005C12.3002 15.7005 11.0002 15.7005 9.5002 15.7005C9.5002 19.9005 9.5002 24.0005 9.5002 28.2005C7.7002 28.2005 6.00019 28.2005 4.40019 28.2005Z" fill="black"/>
</svg>
