<svg width="33" height="28" viewBox="0 0 33 28" fill="none" xmlns="http://www.w3.org/2000/svg">
<path d="M0.600586 25.2004C1.10059 24.3004 1.50058 23.5004 2.00058 22.7004C2.90058 21.1004 3.90058 19.5004 4.70058 17.9004C5.00058 17.4004 5.10059 16.8004 5.10059 16.2004C4.30059 9.00041 9.00058 2.40037 16.2006 1.10037C23.3006 -0.19963 30.1006 4.30038 31.8006 11.3004C33.9006 19.6004 27.4006 27.9004 18.8006 28.0004C15.6006 28.0004 12.8006 27.0004 10.2006 25.1004C9.90058 24.9004 9.50059 24.7004 9.10059 24.7004C6.80059 24.8004 4.50058 24.9004 2.20058 25.0004C1.60058 25.2004 1.20059 25.2004 0.600586 25.2004ZM5.70058 22.2004C7.20058 22.1004 8.60057 22.0004 9.90057 22.0004C10.4006 22.0004 10.9006 22.2004 11.3006 22.5004C14.6006 25.4004 19.2006 26.1004 23.2006 24.1004C27.0006 22.3004 29.4006 18.1004 29.2006 13.8004C28.8006 7.80038 23.7006 3.40038 17.5006 3.80038C11.8006 4.20038 7.10058 9.40041 7.80058 15.2004C8.00058 17.2004 7.50058 18.7004 6.50058 20.3004C6.20058 20.7004 6.00058 21.2004 5.70058 21.6004C5.70058 21.9004 5.70058 22.0004 5.70058 22.2004Z" fill="black"/>
<path d="M11.6006 10.6002C11.6006 8.70016 12.3006 7.40016 13.9006 6.60016C14.5006 6.20016 15.0006 6.30018 15.3006 7.00018C15.8006 7.90018 16.3006 8.8002 16.9006 9.7002C17.4006 10.4002 17.2006 10.9002 16.5006 11.3002C14.8006 12.3002 14.7006 12.6002 15.7006 14.4002C16.5006 15.7002 17.4006 16.9002 18.3006 18.2002C18.7006 18.8002 19.2006 18.8002 19.8006 18.4002C21.6006 17.4002 21.6006 17.4002 22.5006 19.2002C22.8006 19.7002 23.1006 20.3002 23.4006 20.8002C23.9006 21.8002 23.6006 22.7002 22.5006 22.9002C21.7006 23.0002 20.7006 23.0002 19.9006 22.8002C19.1006 22.6002 18.2006 22.2002 17.6006 21.7002C14.3006 18.9002 12.3006 15.4002 11.6006 11.1002C11.6006 10.8002 11.6006 10.6002 11.6006 10.6002Z" fill="black"/>
</svg>
