<svg width="30" height="38" fill="none" xmlns="http://www.w3.org/2000/svg"><path d="M15.4 27.5c.3.5.5.8.6 1.1 1.2 2.5 2.3 5.1 3.5 7.6.7 1.5 2.1 1.9 3.2 1 1.1-.8.9-1.9.4-3-2.2-5.6-5.2-11-5.2-17.3 0-1.7 0-2 1.7-2.5 2.6-.8 5.3-1.6 7.9-2.4 1.5-.5 2.1-1.5 1.8-2.8-.3-1.1-1.5-1.6-3-1.1-2.1.6-4.2 1.3-6.4 1.8-1.8.4-3.8.9-5.6.7-3.4-.5-6.7-1.5-10.1-2.4-1.6-.4-2.8 0-3.1 1.1-.4 1.4.2 2.3 1.9 2.8 2.7.8 5.3 1.6 8 2.4.9.3 1.6.6 1.5 1.7-.2 2.9-.3 5.8-1.4 8.5l-3.9 9.9c-.5 1.3-.1 2.4 1 2.9s2 .1 2.7-1.2l1.8-3.6c.9-1.6 1.8-3.3 2.7-5.2zm.1-19.1c2.2 0 4-1.9 4-4.1 0-2.2-1.9-4.1-4.1-4.1-2.3 0-4.1 1.9-4.1 4.2.1 2.2 1.9 4 4.2 4z" fill="#000"/><path d="M15.4 27.5c-.9 1.9-1.8 3.6-2.6 5.3L11 36.4c-.6 1.3-1.6 1.7-2.7 1.2-1.2-.5-1.6-1.6-1-2.9l3.9-9.9c1.1-2.7 1.2-5.6 1.4-8.5.1-1.1-.6-1.5-1.5-1.7-2.7-.8-5.3-1.6-8-2.4-1.7-.5-2.3-1.4-1.9-2.8.3-1.1 1.5-1.5 3.1-1.1 3.3.8 6.7 1.9 10.1 2.4 1.8.3 3.8-.3 5.6-.7 2.2-.5 4.3-1.2 6.4-1.8 1.4-.4 2.7 0 3 1.1.4 1.3-.3 2.3-1.8 2.8-2.6.8-5.3 1.6-7.9 2.4-1.7.5-1.7.8-1.7 2.5 0 6.3 3 11.7 5.2 17.3.4 1.1.7 2.2-.4 3-1.2.9-2.5.5-3.2-1-1.2-2.5-2.4-5.1-3.5-7.6-.2-.4-.4-.7-.7-1.2z" fill="#000"/><path d="M15.5 8.4c-2.3 0-4.1-1.7-4.1-4S13.2.2 15.5.2c2.2 0 4.1 1.8 4.1 4.1-.1 2.2-1.9 4-4.1 4.1z" fill="#000"/></svg>