<svg width="122" height="100" fill="none" xmlns="http://www.w3.org/2000/svg"><path d="M.9 6.8C.9 3 3.1 0 7.9 0s7 3.1 7 6.8v13.7c0 3.8-2.2 6.8-7 6.8s-7-3.1-7-6.8V6.8zm4.6 13.5c0 2 .6 2.9 2.4 2.9 1.8 0 2.4-1 2.4-2.9V6.9c0-2-.6-2.9-2.4-2.9-1.8 0-2.4 1-2.4 2.9v13.4zM20.8 26.9V.3h6.6c5.6 0 8.3 2.2 8.3 7.8 0 5.7-2.6 7.8-8.3 7.8h-2v10.9h-4.6v.1zm4.6-14.7h1.8c3 0 3.9-.9 3.9-4.1 0-3.2-.9-4.1-3.9-4.1h-1.8v8.2zM40.7 26.9V.3H53v4h-7.7v6.9h5.9v4h-5.9V23h8.2v4H40.7v-.1zM58.6 26.9V.3h4.2l5.6 15.2h.1V.3h4.1v26.6h-4l-5.8-16.6h-.1v16.6h-4.1zM.9 63.1V36.5h12.2v4H5.4v6.9h5.9v4H5.4v7.8h8.2v4H.9v-.1zM27 63.1h-4.6V52l-5.5-15.5h4.6l3.2 10.1h.1l3.1-10.1h4.6L27 52v11.1zM36.6 63.1V36.5h12.2v4h-7.7v6.9H47v4h-5.9v7.8h8.2v4H36.6v-.1zM7.2 85.9h7.5v13.5h-2.2l-.8-2c-1.4 1.6-2.5 2.4-4.6 2.4C3.5 99.8 1 97.2 1 93V79.3c0-3.8 2.2-6.8 6.7-6.8 4.6 0 6.9 3.3 6.9 7.3v1.7h-4.3c0-4-.8-5-2.6-5-1.1 0-2 .7-2 2.9V93c0 1.7.6 2.8 2.1 2.8 1.8 0 2.5-1 2.5-3.7v-2.6H7.4v-3.6h-.2zM23.5 99.4h-4.4L24 72.8h5.7l4.9 26.6h-4.4l-.8-5.9h-5l-.9 5.9zm1.5-9.9h3.7l-1.8-11.4h-.1L25 89.5zM38.4 99.4V72.8H43v22.6h7.2v4H38.4zM54.2 99.4V72.8h4.6v22.6H66v4H54.2zM70.3 99.4V72.8h12.2v4h-7.7v6.9h5.9v4h-5.9v7.8H83v4H70.3v-.1zM92.7 99.4h-4.6V72.8h6.4c5.1 0 7.701 2.2 7.701 7.8 0 4.3-1.7 6-3.2 6.7l3.9 12h-4.6l-3.2-11c-.6.1-1.5.1-2.4.1v11zm0-14.7h1.6c2.5 0 3.4-.9 3.4-4.1 0-3.2-.9-4.1-3.4-4.1h-1.6v8.2zM116.3 99.4h-4.6V88.3l-5.5-15.5h4.6l3.2 10.1h.1l3.1-10.1h4.6l-5.5 15.5v11.1z" fill="#000"/></svg>