<svg width="151" height="124" fill="none" xmlns="http://www.w3.org/2000/svg"><path d="M.2 8.7C.2 4 2.9.2 8.9.2c5.9 0 8.7 3.8 8.7 8.5v17c0 4.7-2.7 8.5-8.7 8.5C3 34.2.2 30.4.2 25.7v-17zm5.7 16.8c0 2.5.7 3.7 3 3.7s3-1.2 3-3.7V8.8c0-2.5-.7-3.7-3-3.7s-3 1.2-3 3.7v16.7zM24.9 33.7V.7H33c7 0 10.2 2.7 10.2 9.7 0 7-3.2 9.7-10.2 9.7h-2.5v13.5h-5.6v.1zm5.7-18.2h2.2c3.7 0 4.8-1.1 4.8-5.1 0-3.9-1.1-5.1-4.8-5.1h-2.2v10.2zM49.6 33.7V.7h15.2v4.9h-9.5v8.5h7.3V19h-7.3v9.7h10.1v4.9H49.6v.1zM71.7 33.7V.7H77l6.9 18.9h.1V.7h5.1v33h-4.9L77 13.1h-.1v20.6h-5.2zM.2 78.6v-33h15.2v4.9H5.9V59h7.3v4.9H5.9v9.7H16v4.9H.2v.1zM32.6 78.6h-5.7V64.9L20 45.6h5.8l4 12.6h.1l3.8-12.6h5.8l-6.9 19.3v13.7zM44.5 78.6v-33h15.2v4.9h-9.5V59h7.3v4.9h-7.3v9.7h10.1v4.9H44.5v.1zM8 106.801h9.3V123.5h-2.7l-1.1-2.5c-1.7 2-3.1 2.9-5.7 2.9-4.5 0-7.6-3.2-7.6-8.5v-17c0-4.7 2.7-8.5 8.3-8.5 5.7 0 8.5 4.1 8.5 9.1v2.101h-5.4c0-4.9-1-6.2-3.2-6.2-1.4 0-2.5.8-2.5 3.6V115.5c0 2.1.7 3.5 2.7 3.5 2.3 0 3.1-1.3 3.1-4.6v-3.2H8v-4.399zM28.2 123.601h-5.5l6.1-33h7l6.1 33h-5.5l-1-7.3h-6.2l-1 7.3zm1.8-12.3h4.6l-2.2-14.2h-.1L30 111.3zM46.7 123.601v-33h5.7V118.7h8.9v4.901H46.7zM66.4 123.601v-33h5.7V118.7H81v4.901H66.4zM86.2 123.601v-33h15.2v4.9h-9.5V104h7.3v4.9h-7.3v9.701H102v4.899H86.2v.101zM114 123.601h-5.7v-33h8c6.4 0 9.6 2.7 9.6 9.7 0 5.3-2.1 7.5-4 8.3l4.8 14.899H121l-4-13.699c-.7.1-1.9.099-2.9.099v13.701h-.1zm0-18.201h2c3.1 0 4.2-1.099 4.2-5.099 0-3.9-1.1-5.1-4.2-5.1h-2V105.4zM143.3 123.601h-5.7V109.9l-6.9-19.3h5.8l4 12.6h.1l3.8-12.6h5.8l-6.9 19.3v13.701z" fill="#0048FF"/></svg>