<svg width="155" height="37" fill="none" xmlns="http://www.w3.org/2000/svg"><path d="M60 11.6h2.3l4 10.1H64l-.8-2.3H59l-.8 2.3H56l4-10.1zm1.2 2.1l-1.4 4.2h3l-1.6-4.2z" fill="#231F20"/><mask id="a" style="mask-type:luminance" maskUnits="userSpaceOnUse" x="0" y="0" width="155" height="37"><path d="M154.9.4H.4v36.2h154.5V.4z" fill="#fff"/></mask><g mask="url(#a)"><path d="M67.4 11.6h2.2c2.2 0 4.8-.1 4.8 2.8 0 1.2-.8 2.2-2.1 2.4.6 0 .8.6 1.1 1.1l1.7 4h-2.3l-1.2-3.1c-.2-.7-.6-1.1-1.4-1.1h-.6v4.2h-2.1V11.6h-.1zm2 4.4h.7c1 0 2.2-.1 2.2-1.4 0-1.2-1.1-1.3-2.2-1.3h-.7V16z" fill="#231F20"/></g><path d="M78.3 13.2h-2.9v-1.6h7.9v1.6h-2.9v8.7h-2.1v-8.7z" fill="#231F20"/><mask id="b" style="mask-type:luminance" maskUnits="userSpaceOnUse" x="0" y="0" width="155" height="37"><path d="M154.9.4H.4v36.2h154.5V.4z" fill="#fff"/></mask><g mask="url(#b)"><path d="M90 13.6c-.6-.2-1.3-.5-2.1-.5-.7 0-1.6.4-1.6 1.4 0 1.8 4.5 1 4.5 4.5 0 2.3-1.8 3.1-3.9 3.1-1.1 0-1.6-.1-2.7-.4l.2-1.8c.7.4 1.4.6 2.3.6.7 0 1.8-.4 1.8-1.3 0-1.9-4.5-1.1-4.5-4.5 0-2.3 1.8-3.1 3.6-3.1.8 0 1.7.1 2.4.4v1.6z" fill="#231F20"/></g><mask id="c" style="mask-type:luminance" maskUnits="userSpaceOnUse" x="0" y="0" width="155" height="37"><path d="M154.9.4H.4v36.2h154.5V.4z" fill="#fff"/></mask><g mask="url(#c)"><path d="M103.9 21.7c-.7.1-1.6.4-2.3.4-3.3 0-5.6-1.7-5.6-5.1 0-3.5 2.2-5.4 5.6-5.4.7 0 1.6.1 2.3.5l-.1 1.7c-.7-.5-1.4-.5-2.2-.5-2.1 0-3.4 1.6-3.4 3.7s1.3 3.6 3.5 3.6c.8 0 1.7-.1 2.2-.5v1.6z" fill="#231F20"/></g><mask id="d" style="mask-type:luminance" maskUnits="userSpaceOnUse" x="0" y="0" width="155" height="37"><path d="M154.9.4H.4v36.2h154.5V.4z" fill="#fff"/></mask><g mask="url(#d)"><path d="M109.8 11.5c3.1 0 4.9 2.2 4.9 5.2s-1.8 5.3-4.9 5.3c-3.3 0-4.9-2.2-4.9-5.3 0-3.1 1.7-5.2 4.9-5.2zm0 9c2.1 0 2.9-1.8 2.9-3.7 0-1.8-.8-3.6-2.9-3.6-2.1 0-2.9 1.8-2.9 3.6 0 1.7.9 3.7 2.9 3.7z" fill="#231F20"/></g><mask id="e" style="mask-type:luminance" maskUnits="userSpaceOnUse" x="0" y="0" width="155" height="37"><path d="M154.9.4H.4v36.2h154.5V.4z" fill="#fff"/></mask><g mask="url(#e)"><path d="M116.2 11.6h2.1v5.9c0 1.7.6 2.9 2.2 2.9s2.2-1.1 2.2-2.9v-5.9h2.1v6.5c0 2.8-1.6 3.9-4.1 3.9-2.7 0-4.1-1.1-4.1-3.9v-6.5h-.4z" fill="#231F20"/></g><path d="M126 11.6h2.5l3.9 7.6v-7.6h2.1v10.3h-2.6l-3.8-7.7h-.2v7.7H126V11.6z" fill="#231F20"/><mask id="f" style="mask-type:luminance" maskUnits="userSpaceOnUse" x="0" y="0" width="155" height="37"><path d="M154.9.4H.4v36.2h154.5V.4z" fill="#fff"/></mask><g mask="url(#f)"><path d="M143.6 21.7c-.7.1-1.6.4-2.3.4-3.3 0-5.6-1.7-5.6-5.1 0-3.5 2.2-5.4 5.6-5.4.7 0 1.6.1 2.3.5l-.1 1.7c-.7-.5-1.4-.5-2.2-.5-2.1 0-3.4 1.6-3.4 3.7s1.3 3.6 3.5 3.6c.8 0 1.8-.1 2.2-.5v1.6z" fill="#231F20"/></g><path d="M147.3 11.6h-2.1v10.1h2.1V11.6zM148.801 11.6v10.3h6v-1.7h-3.9v-8.6h-2.1zM56.1 26.2v10.3h6.1v-1.7h-4V32h3.6v-1.6h-3.6v-2.6h4v-1.6h-6.1zM70.2 26.2v7.7l-3.8-7.7h-2.5v10.3h1.9v-7.7l4 7.7h2.4V26.2h-2z" fill="#231F20"/><mask id="g" style="mask-type:luminance" maskUnits="userSpaceOnUse" x="0" y="0" width="155" height="37"><path d="M154.9.4H.4v36.2h154.5V.4z" fill="#fff"/></mask><g mask="url(#g)"><path d="M82.1 28.2c-.8-.4-1.8-.5-2.7-.5-2.4 0-3.7 1.6-3.7 3.7S77 35 79.2 35c.6 0 1 0 1.3-.1v-2.7h-2.2v-1.7h4.1v5.4c-1.1.2-2.2.5-3.3.5-3.3 0-5.6-1.7-5.6-5.1 0-3.5 2.2-5.4 5.6-5.4 1.2 0 2.2.1 3 .5v1.8z" fill="#231F20"/></g><path d="M84.1 26.2v10.3h6.1v-1.7h-4v-8.6h-2.1zM96.1 28.3l1.4 4.2h-3l1.6-4.2zM95 26.2l-4 10.1h2.2L94 34h4.1l.8 2.3h2.3l-4-10.1H95zM108.7 26.2v7.7l-3.9-7.7h-2.4v10.3h1.9v-7.7l3.8 7.7h2.6V26.2h-2z" fill="#231F20"/><mask id="h" style="mask-type:luminance" maskUnits="userSpaceOnUse" x="0" y="0" width="155" height="37"><path d="M154.9.4H.4v36.2h154.5V.4z" fill="#fff"/></mask><g mask="url(#h)"><path d="M112.4 26.2h2.8c3.1 0 5.9 1.1 5.9 5.1 0 4-2.8 5.1-5.9 5.1h-2.8V26.2zm2 8.6h1.1c1.7 0 3.4-1.3 3.4-3.5s-1.7-3.5-3.4-3.5h-1.1v7z" fill="#231F20"/></g><mask id="i" style="mask-type:luminance" maskUnits="userSpaceOnUse" x="0" y="0" width="155" height="37"><path d="M154.9.4H.4v36.2h154.5V.4z" fill="#fff"/></mask><g mask="url(#i)"><path d="M56.3 5.7c.2.1.6.2 1 .2.7 0 1.4-.4 1.4-1.2 0-1.3-2.1-1.3-2.1-2.2 0-.7.5-1 1-1 .2 0 .6 0 .8.1l.1-.4c-.4-.1-.6-.1-.8-.1-.8 0-1.4.5-1.4 1.2 0 1.2 2.1 1.3 2.1 2.2 0 .6-.5 1-1 1-.4 0-.7-.1-1-.2l-.1.4zm5.9-3.1h-.4v1.8c0 .6-.2 1.2-1 1.2-.6 0-.7-.4-.7-1V2.5h-.4v2.1c0 .7.4 1.2 1.1 1.2.7 0 1-.4 1.1-.6v.6h.4V2.6h-.1zm1.1 4.6h.4V5.3c.2.5.5.6 1 .6.8 0 1.3-.7 1.3-1.7s-.4-1.7-1.3-1.7c-.7 0-1 .5-1.1.7v-.6h-.4v4.6h.1zm2.2-3c0 .6-.2 1.3-1 1.3s-1-.7-1-1.3c0-.6.2-1.3 1-1.3s1 .7 1 1.3zm1.4 3h.4V5.3c.2.5.5.6 1 .6.8 0 1.3-.7 1.3-1.7s-.4-1.7-1.3-1.7c-.7 0-1 .5-1.1.7v-.6h-.4v4.6h.1zm2.4-3c0 .6-.2 1.3-1 1.3-.7 0-1-.7-1-1.3 0-.6.2-1.3 1-1.3.7-.1 1 .7 1 1.3zm1.1 0c0 .8.5 1.7 1.6 1.7s1.6-.8 1.6-1.7c0-.9-.5-1.7-1.6-1.7s-1.6.8-1.6 1.7zm.5 0c0-.7.4-1.3 1.1-1.3.7 0 1.1.6 1.1 1.3 0 .7-.4 1.3-1.1 1.3-.8.1-1.1-.5-1.1-1.3zm3.5 1.7h.4V4.3c0-.6.1-1.3.8-1.3h.2v-.5h-.2c-.4 0-.7.4-.8.7v-.6h-.4v3.3zm3.7-3.3h-.7v-1l-.4.1v.8h-.6v.4h.6v1.9c0 .6 0 1.1.7 1.1.2 0 .4 0 .5-.1v-.4c-.1 0-.2.1-.4.1-.4 0-.5-.2-.5-.5V2.8h.7c.1.2.1-.2.1-.2zm3 2.8c-.2.1-.6.2-1 .2-.7 0-1.1-.6-1.1-1.2h2.3v-.2c0-.8-.4-1.6-1.3-1.6-.8 0-1.3.7-1.3 1.7S79.1 6 80.1 6c.2 0 .7-.1 1-.2v-.4zm-1.9-1.5c0-.5.4-1.1 1-1.1s.8.6.8 1.1h-1.8zM84.9 1h-.4v2.1c0-.1-.4-.6-1-.6-1 0-1.3.7-1.3 1.7s.5 1.7 1.3 1.7c.5 0 .8-.2 1-.6v.5h.4V1zm-2.3 3.2c0-.6.2-1.3 1-1.3.7 0 1 .7 1 1.3 0 .6-.2 1.3-1 1.3-.9.1-1-.6-1-1.3zm7.1-1.6h-.4v1.8c0 .6-.2 1.2-1 1.2-.6 0-.7-.4-.7-1V2.5h-.4v2.1c0 .7.4 1.2 1.1 1.2.7 0 1-.4 1.1-.6v.6h.2V2.6h.1zm.7 3.1c.2.1.6.1 1 .1.5 0 1.1-.2 1.1-1 0-1.1-1.6-1-1.6-1.6 0-.4.2-.6.7-.6.2 0 .5 0 .7.1v-.4c-.2-.1-.6-.1-.8-.1-.5 0-1.1.2-1.1.8 0 1 1.6.8 1.6 1.6 0 .4-.4.6-.7.6-.4 0-.6-.1-.8-.2v.7h-.1zm2.9.2h.4V2.6h-.4v3.3zm.4-4.8h-.4v.5h.4v-.5zm1 4.8h.4V4.1c0-.6.2-1.2 1-1.2.6 0 .7.4.7 1v1.9h.4V3.7c0-.7-.4-1.2-1.1-1.2-.7 0-1 .4-1.1.6v-.5h-.4v3.2h.1v.1zm4-1.7c0-.6.2-1.3 1-1.3.701 0 1.001.6 1.001 1.3 0 .6-.2 1.3-1 1.3-.7 0-1-.6-1-1.3zm2.301-1.6h-.4V3c-.4-.4-.6-.5-1-.5-1 0-1.3.7-1.3 1.7 0 .7.4 1.7 1.3 1.7.4 0 .7-.1 1-.6 0 1-.1 1.7-1.1 1.7-.4 0-.7-.1-1-.2v.4c.1 0 .6.1 1 .1 1.1 0 1.6-.7 1.6-1.7V2.7h-.1v-.1zm2.2 4.6h.4V5.3c.2.5.5.6 1 .6.8 0 1.3-.7 1.3-1.7s-.4-1.7-1.3-1.7c-.7 0-1 .5-1.1.7v-.6h-.4v4.6h.1zm2.4-3c0 .6-.2 1.3-1 1.3-.7 0-1-.7-1-1.3 0-.6.2-1.3 1-1.3.8-.1 1 .7 1 1.3zm3.9-1.6h-.4v1.8c0 .6-.2 1.2-1 1.2-.6 0-.7-.4-.7-1V2.5h-.4v2.1c0 .7.4 1.2 1.1 1.2.7 0 1-.4 1.1-.6v.6h.4V2.6h-.1zm1.1 3.3h.4v-.5c.2.4.6.6 1 .6.8 0 1.3-.7 1.3-1.7s-.4-1.7-1.3-1.7c-.6 0-1 .5-1 .6V1h-.4v4.9zm2.2-1.7c0 .6-.2 1.3-1 1.3-.7 0-1-.7-1-1.3 0-.6.2-1.3 1-1.3.9-.1 1 .7 1 1.3zm1.5 1.7h.4V1.1h-.4v4.8zm1.4 0h.4V2.6h-.4v3.3zm.4-4.8h-.4v.5h.4v-.5zm3.3 1.5c-.1 0-.4-.1-.8-.1-1 0-1.6.7-1.6 1.7s.5 1.7 1.6 1.7c.4 0 .6 0 .8-.1v-.4c-.2.1-.5.1-.7.1-.7 0-1.2-.6-1.2-1.3 0-.8.5-1.3 1.2-1.3.2 0 .5.1.7.1v-.4zm2.3 3.3h.4V3h.7v-.4h-.8v-.4c0-.4 0-1 .5-1 .1 0 .2 0 .4.1V.9c-.1 0-.2-.1-.4-.1-.8 0-.8.7-.8 1.3v.2h-.6v.4h.6v3.2zm4.4-3.3h-.4v1.8c0 .6-.2 1.2-1 1.2-.6 0-.7-.4-.7-1V2.5h-.4v2.1c0 .7.4 1.2 1.1 1.2.7 0 1-.4 1.1-.6v.6h.4V2.6h-.1zm1.1 3.3h.4V4.1c0-.6.2-1.2 1-1.2.6 0 .7.4.7 1v1.9h.4V3.7c0-.7-.4-1.2-1.1-1.2-.7 0-1 .4-1.1.6v-.5h-.4v3.2h.1v.1zm6.3-4.9h-.4v2.1c0-.1-.4-.6-1-.6-1 0-1.3.7-1.3 1.7s.5 1.7 1.3 1.7c.5 0 .8-.2 1-.6v.5h.4V1zm-2.4 3.2c0-.6.2-1.3 1-1.3s1 .7 1 1.3c0 .6-.2 1.3-1 1.3-.8.1-1-.6-1-1.3zm3.5 1.7h.4V2.6h-.4v3.3zm.3-4.8h-.4v.5h.4v-.5zm1.1 4.8h.4V4.1c0-.6.2-1.2 1-1.2.6 0 .7.4.7 1v1.9h.4V3.7c0-.7-.4-1.2-1.1-1.2-.7 0-1 .4-1.1.6v-.5h-.4v3.2h.1v.1zm3.9-1.7c0-.6.2-1.3 1-1.3s1 .6 1 1.3c0 .6-.2 1.3-1 1.3s-1-.6-1-1.3zm2.4-1.6h-.4V3c-.2-.4-.6-.5-1-.5-1 0-1.3.7-1.3 1.7 0 .7.4 1.7 1.3 1.7.4 0 .7-.1 1-.6 0 1-.1 1.7-1.1 1.7-.4 0-.7-.1-1-.2v.4c.1 0 .6.1 1 .1 1.1 0 1.6-.7 1.6-1.7V2.7h-.1v-.1zm2.2 3.3h.4v-.5c.2.4.6.6 1 .6.8 0 1.3-.7 1.3-1.7s-.4-1.7-1.3-1.7c-.6 0-1 .5-1 .6V1h-.4v4.9zm2.3-1.7c0 .6-.2 1.3-1 1.3-.7 0-1-.7-1-1.3 0-.6.2-1.3 1-1.3.8-.1 1 .7 1 1.3zm1.3-1.6h-.5l1.2 3.3-.1.2c-.1.5-.2.7-.6.7h-.2v.4h.5c.5 0 .7-.5.8-.8l1.3-3.7h-.5l-1 2.8-.9-2.9z" fill="#231F20"/></g><path d="M1.2 19.4l1.9-.6v1.1l-1.9-.5zm-.8-.6V20L5 21.3v-1.1L4 20v-1.4l1-.4v-1.1L.4 18.8z" fill="#231F20"/><mask id="j" style="mask-type:luminance" maskUnits="userSpaceOnUse" x="0" y="0" width="155" height="37"><path d="M154.9.4H.4v36.2h154.5V.4z" fill="#fff"/></mask><g mask="url(#j)"><path d="M1.8 13.7l.1-.4c.1-.6.6-.5.7-.5.4.1.5.4.4.7l-.1.4-1.1-.2zm3.3 2.2l.4-1-1.8-.6c.1-.4.1-.5.8-.5h1.3l.4-1.1H4.6c-.6 0-.8.1-1 .4.1-.8-.6-1.2-.7-1.2-.8-.2-1.3.2-1.6 1l-.5 1.6 4.3 1.4z" fill="#231F20"/></g><path d="M7 11.4l.6-1-3-2 .6-.9-.7-.4-1.8 2.5.7.5.6-.9 3 2.2z" fill="#231F20"/><mask id="k" style="mask-type:luminance" maskUnits="userSpaceOnUse" x="0" y="0" width="155" height="37"><path d="M154.9.4H.4v36.2h154.5V.4z" fill="#fff"/></mask><g mask="url(#k)"><path d="M7.9 3.9c-.4.2-.6.2-1 .6-1.2 1-.5 1.9-.4 2.1 1.1 1.2 2.2-.2 2.8.5.2.2.1.6-.1.8-.4.2-.6.4-1 .5l.5.7c.2-.1.6-.2 1.1-.6.7-.6.8-1.4.4-2.1-1.1-1.2-2.2.2-2.7-.5-.2-.2-.1-.6.1-.7.2-.2.6-.4.8-.4l-.5-.9z" fill="#231F20"/></g><mask id="l" style="mask-type:luminance" maskUnits="userSpaceOnUse" x="0" y="0" width="155" height="37"><path d="M154.9.4H.4v36.2h154.5V.4z" fill="#fff"/></mask><g mask="url(#l)"><path d="M16.2.7c-.2 0-.6-.1-1.2 0-1 .2-1.8 1.1-1.4 2.8.4 1.4 1.4 2.2 2.7 1.8.6-.1 1-.4 1.1-.4l-.2-1c-.1.1-.4.4-.8.5-.7.1-1.3-.4-1.4-1.2-.2-.8.1-1.6.8-1.7.5-.1.8 0 1 0l-.6-.8z" fill="#231F20"/></g><mask id="m" style="mask-type:luminance" maskUnits="userSpaceOnUse" x="0" y="0" width="155" height="37"><path d="M154.9.4H.4v36.2h154.5V.4z" fill="#fff"/></mask><g mask="url(#m)"><path d="M19.7 2.7c.1-.8.4-1.6 1.1-1.4.6.1.7.8.6 1.7-.1.8-.4 1.6-1.1 1.4-.6-.1-.7-.8-.6-1.7zm-1.1-.1c-.1 1.3.4 2.4 1.7 2.5 1.3.1 2.1-.7 2.2-2.1.1-1.3-.4-2.4-1.7-2.5-1.4-.2-2.1.8-2.2 2.1z" fill="#231F20"/></g><mask id="n" style="mask-type:luminance" maskUnits="userSpaceOnUse" x="0" y="0" width="155" height="37"><path d="M154.9.4H.4v36.2h154.5V.4z" fill="#fff"/></mask><g mask="url(#n)"><path d="M24 4.2c-.5 1-.2 1.8.7 2.3 1 .5 1.8.2 2.3-.8l1.3-2.5-1-.5-1.4 2.8c-.2.4-.5.6-.8.4-.4-.2-.4-.5-.2-1l1.4-2.8-1-.4L24 4.2z" fill="#231F20"/></g><path d="M27.3 7.9l.6.7 2.4-2.3-1.4 3.3.9.8 3.3-3.1-.7-.7-2.3 2.3 1.4-3.3-1-.8-3.2 3.1z" fill="#231F20"/><mask id="o" style="mask-type:luminance" maskUnits="userSpaceOnUse" x="0" y="0" width="155" height="37"><path d="M154.9.4H.4v36.2h154.5V.4z" fill="#fff"/></mask><g mask="url(#o)"><path d="M35.7 12.4c0-.2 0-.6-.4-1.2-.4-.8-1.4-1.6-3-.8-1.3.6-1.8 1.8-1.2 3 .2.5.5.8.6 1l.8-.5c-.1-.1-.4-.2-.6-.7-.2-.6 0-1.3.8-1.7.8-.4 1.6-.2 1.9.4.2.5.2.7.1 1l1-.5z" fill="#231F20"/></g><path d="M36.533 14.865l-4.53.803.193 1.083 4.53-.803-.193-1.083zM32.4 18.5l-.2 2.7h.9v-1.5l3.7.3.1-1.1-4.5-.4zM4.5 29.3l1.3 1.4.2-.2-1-1.2 1.4-1.2 1 1.2.2-.3-.9-1.2 1.3-.9.9 1.2.3-.4L8 26.2l-3.5 3.1zM7.7 32.6l.3.2 2.3-3.3-.6 4.4.3.3 2.6-3.8-.3-.2-2.3 3.4.8-4.5-.5-.3-2.6 3.8z" fill="#231F20"/><mask id="p" style="mask-type:luminance" maskUnits="userSpaceOnUse" x="0" y="0" width="155" height="37"><path d="M154.9.4H.4v36.2h154.5V.4z" fill="#fff"/></mask><g mask="url(#p)"><path d="M14.7 33.701l.8.2-.5 1.6h-.6c-1.2-.4-1.2-1.6-1-2.3.4-1.3 1.3-1.6 2.1-1.4.4.1.7.4.8.5l.1-.4c-.1-.1-.5-.4-.8-.5-1.2-.4-2.2.5-2.5 1.7-.2.8-.2 2.4 1.2 2.9.4.1.7.1 1.1 0l.6-2.2-1.2-.4-.1.3z" fill="#231F20"/></g><path d="M18.1 31.8v4.6H20V36h-1.5v-4.2h-.4zM22.3 31.7l1.4 2.2-1.6.5.2-2.7zm-.2-.4l-.2 4.8.4-.1v-1.3l1.8-.5.7 1.1.4-.1-2.8-4-.3.1zM27.2 34.2l.2-.2-2.2-3.4 3.9 2.3.4-.3-2.5-3.8-.3.2 2.3 3.4h-.1l-3.8-2.3-.5.3 2.6 3.8z" fill="#231F20"/><mask id="q" style="mask-type:luminance" maskUnits="userSpaceOnUse" x="0" y="0" width="155" height="37"><path d="M154.9.4H.4v36.2h154.5V.4z" fill="#fff"/></mask><g mask="url(#q)"><path d="M28.7 27.6l.2-.2c1-1.2 1.9-.6 2.5-.1.8.7 1.2 1.6.5 2.4l-.2.4-3-2.5zm3.1 2.9l.5-.6c.8-1.2.5-2.3-.6-3.1-1.2-1-2.2-.8-3.1.4l-.4.6 3.6 2.7z" fill="#231F20"/></g><path d="M46.7.4h-.5v36.1h.5V.4z" fill="#231F20"/></svg>