<svg width="110" height="37" fill="none" xmlns="http://www.w3.org/2000/svg"><mask id="a" style="mask-type:luminance" maskUnits="userSpaceOnUse" x="0" y="0" width="110" height="37"><path d="M109.9.1H.6v36.2h109.3V.1z" fill="#fff"/></mask><g mask="url(#a)"><path d="M9.1 5.2c0 .2-.2.4-.5.4h-.1c.1 0 .2-.1.2-.2s-.1-.2-.2-.2-.2.1-.2.2v-.1c0-.1 0-.1.1-.2-.2.1-.4.4-.4.4s.1-.7.7-.8c.7-.1 1.1.4 1.1.4C9.4 5 9.2 5 9 5c0-.2.1.1.1.2zm7.2 13.4c-.6.5-1.3.8-2.2 1.1l-.2-1c.5-.2.8-.4 1.2-.7l1.2.6zm-3.1.4l.2.8c-2.3.4-4.8-.4-6.2-2.1-.1-.1-.2-.2-.2-.4 1.6 1.7 4 2.3 6.2 1.7zM8.8 36c-3.6.1-4.9.2-4.9.2.7-.7 1.7-1.7 2.8-2.2.6-.2 1-.4 1.7-.5 0 0 1.6-2.1 2.7-4.3.2-.4.4-.8.4-1.2 0-.4-.1-.7-.5-1.1l-.1-.1-.5-.5c-.5-.5-1.3-1.2-2.7-2.2C4.3 21.4 4 18.5 4 17.3v-.5c0-.2.2-2.5 2.4-4.5-.4-.2-.6-.5-.7-.7-.4.6-1.1 1.2-1.1 1.2h-.1l-.1.1c-.2.2-.2.4-.2.5 0 .1.2.5.2.5s-.4-.1-.6-.2c0 0-.5-.4-.5-1.1 0-.4 0-.7.2-1.2-.5.2-.8.2-1.2.2-.7 0-1.4-.4-1.4-.4s.5-.1.7-.2c.2-.2.6-.8 1.1-1.3.2-.2.6-.4.8-.4.5 0 .8.2 1.1.4.1-.1.2-.4.2-.6-1.1.1-1.3-.1-1.3-.1.5-.2.8-.5 1.2-.7 0 0 0-.1-.1-.1-.1-.1-.2-.4-.4-.5-.8.2-1.4.7-1.6.7 0 0-.1-1.2 1.1-2.2v-.5c0-.7.2-1.1.2-1.1l.7.2-.4.8c.1-.1.4-.2.6-.2.7-.4 1.4-.5 1.8-.5.1-.7.6-1.3 1.3-1.6.7-.4 1.8-.5 2.9-.5h.5c1.6 0 2.5-.6 2.8-.7l1-.7-.5 1.2c-.4 1-.7 1.7-1.2 2.3 0 0-.4.5-.5.6-.1 2.4-.6 4-1.6 5.3.5-.4 1.2-.8 2.1-1.7C15 7.5 17 5 19.1.9l.5-1 .1 1.2s.1 1.1.1 2.9c0 1.4-.1 3.3-.6 5.3C25.6 7.1 29.8 4.4 31 3.5l.4-.2 1.1-.8-.5 1.2s-3.5 8.4-11.6 11.5h.7c.6 0 1.2 0 1.9-.1l1-.1-.6.7c-1.1 1.2-2.8 2.9-4.9 4.2-.4.2-.8.5-1.2.7 5.7 3.6 6.9 9.4 6.9 9.5l.2 1.1-.8-.7c-2.3-2.1-3.9-3.3-4.9-4-.1.2-.4.6-.5 1-.6 1.2-1.3 3.4-1.6 6.4 2.1.8 3 2.1 3.4 2.4 0 0-2.5-.2-6.5-.2-1.2 0-2.1-.1-4.7-.1zm3.5-24.6c2.3-.5 4.3-1.1 6.3-1.7.5-2.1.7-4.1.7-5.6V2.7c-1.8 3.5-3.6 5.8-5.2 7.2-.8.7-1.3 1.1-1.8 1.5zM5 7.9s.1.1.1.2c.5-.2.7-.5 1.1-.7-.5 0-1 0-1.4.1-.1.1.1.2.2.4zm-.7 2.2s-.1-.1-.2-.1c-.2-.1-.5-.2-.7-.2-.2 0-.4 0-.6.2 0 0-.4.4-.5.6l-.2.4-.4.4h.4c.6 0 1.4-.3 2.2-1.3zm.8 1.1c-.2-.4-.2-.7-.2-1.1-.2.4-.5.6-.7.7-.5.7-.6 1.3-.6 1.7 0 .1 0 .4.1.4 0-.1.1-.1.2-.2l.2-.2s.2-.1.5-.5c.1 0 .4-.4.5-.8zm.2-1.5c.4 0 1 .2 1.4 1.1.1.4.2.6.4 1 1.6-1.4 1.8-2.5 1.8-3v-.2c-1.6.5-2.7.6-3.7.7 0 .2-.1.4-.1.6.1-.2.1-.2.2-.2zm1 2.4c.2.1.5.4.6.5 0-.4-.1-1-.5-1.6-.4-.7-.8-.8-1.1-.8h-.2c.1.2.2 1.3 1.2 1.9zm3.3-4.4s.2.4.2 1c0 .8-.5 2.2-2.4 3.9 0 .5.1 1.9 0 1.7-.1-.4-.2-.7-.5-1-.1-.1-.1-.1-.1-.2l-.1-.1c-1.8 1.6-2.2 3.5-2.2 4V17.6c0 1.1.2 3.7 3.5 6.3 2.7 2.1 3.4 2.9 3.4 2.9.5.5.7 1.1.7 1.7 0 .7-.4 1.4-.7 2.1-1.1 2.4-2.5 4-2.5 4l-.1.1h-.1s-.4.1-.6.1c-.2 0-.6.2-1 .4-.6.2-.8.4-1.3.7 2.7-.2 6.2-.1 6.3-.1-.8-.8-1.7-1.2-1.7-1.2l.1-.2c1-2.4 2.2-4.3 3.4-5.7.6-.7 1.9-2.2 3.1-2.4l-1.4 1.3c.2.4.5 1.1.5 2.2 0 .5-.1 1.1-.2 1.7-.4 1.7-.7 2.8-.8 3.1 0 0-1.1 0-2.3.6l.1.1c.1.2.1.1.2.2 2.2.1 3.1 0 5.6.2-1.2-.8-2.7-1.4-2.7-1.4v-.1c.5-4.9 1.7-7.2 2.2-8-1.9-1-4.8-2.3-4.8-2.3 4.1.8 6.4 2.4 6.6 2.7.8.6 1.9 1.3 3.3 2.5-.2-.6-.5-1.3-1-2.2-1.1-1.9-2.8-4.2-5.6-5.9-1.6.8-3.3 1.3-4.9 1.3h-.7c-2.5-.2-4.6-2.2-4.8-4.8V17c.5 2.4 2.5 4.1 4.7 4.5h1.1c2.1-.1 4.2-1.1 6.2-2.3 1.7-1.1 3.1-2.3 4.1-3.4h-1.1c-1.4 0-2.3-.2-2.4-.2l-1.2-.4 1.2-.4C25.5 13 29.4 7.1 30.8 4.5c-2.5 1.7-9.4 5.7-19.1 7.5 0 0-.7.1-1 .2-2.2.6-3.3 2.5-3.3 2.5.4-1.4 1.9-2.7 2.5-3.1 1.2-1.4 2.2-2.9 2.3-5.6-.5.2-1.1.5-1.9.6 0 0 2.1-1.2 3.1-2.9.1-.1.1-.2.2-.5-.5.2-1.3.4-2.3.4h-.5c-1.1 0-1.9.1-2.5.4-.6.2-.8.6-.8 1.2v.4h-.4C7 5.6 6 5.5 5 5.8c-.6.2-1.4.7-1.8 1.6.7-.4 2.1-1 3.4-1h.7l.7.1-1 .8c-.7.5-.8.6-2.1 1.2v.1l.6-.1c1.1-.2 2.7-.5 3.4-.8l.2-.1c.4-.1.5.1.5.1zm4.8 26.2s0-.1.1-.1c.1-.2.4-1.3.7-2.4.1-.6.1-1.2.2-1.7 0-.7-.1-1.3-.2-1.6l-.4.4-.6.7c-1 1.2-2.1 2.8-2.9 4.8.1.1.6.4 1 .7.5-.4.8-.5 2.1-.8z" fill="#231F20"/></g><path d="M37.1.1h-.7v36.2h.7V.1zM44.6 8.2l-1-.3v-.4h3.5v.4l-1.1.3v6.5h1.9l.8-1.4h.5l-.3 2h-5.3v-.2l1-.5V8.2z" fill="#231F20"/><mask id="b" style="mask-type:luminance" maskUnits="userSpaceOnUse" x="0" y="0" width="110" height="37"><path d="M109.9.1H.6v36.2h109.3V.1z" fill="#fff"/></mask><g mask="url(#b)"><path d="M50.7 10.5l-1-.2v-.4l2.4-.5v5.2l1 .4v.4h-3.5V15l1-.4v-4.1h.1zm1.6-2.6c0 .5-.2.7-.8.7-.6 0-.8-.2-.8-.7 0-.5.2-.7.8-.7.6 0 .8.2.8.7z" fill="#231F20"/></g><mask id="c" style="mask-type:luminance" maskUnits="userSpaceOnUse" x="0" y="0" width="110" height="37"><path d="M109.9.1H.6v36.2h109.3V.1z" fill="#fff"/></mask><g mask="url(#c)"><path d="M53.6 10.3l-.7-.4v-.4H56v.4l-.8.4.8 2.5c.1.4.2.7.2 1l1.3-3.4-.7-.4v-.4h2.3v.4l-.7.4-2.2 5.1h-.6l-2-5.2z" fill="#231F20"/></g><mask id="d" style="mask-type:luminance" maskUnits="userSpaceOnUse" x="0" y="0" width="110" height="37"><path d="M109.9.1H.6v36.2h109.3V.1z" fill="#fff"/></mask><g mask="url(#d)"><path d="M60.5 12.3c0 1.4 1 2.3 2.1 2.3.4 0 .8 0 1.3-.1l.1.5c-1 .4-1.8.5-2.3.5-1.7 0-2.8-1.1-2.8-2.9 0-1.8 1.2-3 2.8-3 1.6 0 2.3.8 2.3 2.7v.2h-3.5v-.2zm2.2-.6c0-1.3-.5-1.7-1-1.7-.7 0-1.1.6-1.1 1.7v.2l2.1-.2z" fill="#231F20"/></g><mask id="e" style="mask-type:luminance" maskUnits="userSpaceOnUse" x="0" y="0" width="110" height="37"><path d="M109.9.1H.6v36.2h109.3V.1z" fill="#fff"/></mask><g mask="url(#e)"><path d="M67.4 14.6l1.2.4v.4H65V15l1-.4v-4.1l-1-.2v-.4l2.4-.5v.7l.6-.4c.4-.2.8-.4 1.1-.4.2 0 .5 0 .7.2v1.4h-1.2l-.4-.7H68c-.2 0-.4 0-.7.1v4.1h.1v.2z" fill="#231F20"/></g><mask id="f" style="mask-type:luminance" maskUnits="userSpaceOnUse" x="0" y="0" width="110" height="37"><path d="M109.9.1H.6v36.2h109.3V.1z" fill="#fff"/></mask><g mask="url(#f)"><path d="M72.7 17.3l1.2.4v.4h-3.6v-.4l1-.4v-6.8l-1-.2v-.4l2.4-.5v.7c.7-.4 1.4-.6 1.9-.6 1.2 0 2.1 1.1 2.1 2.7 0 1.8-1.3 3.3-3.3 3.3-.4 0-.5 0-.8-.1v1.9h.1zm0-2.4h.5c1.3 0 2.1-.8 2.1-2.4 0-1.4-.5-2.1-1.6-2.1-.2 0-.4 0-.8.1v4.3h-.2v.1z" fill="#231F20"/></g><mask id="g" style="mask-type:luminance" maskUnits="userSpaceOnUse" x="0" y="0" width="110" height="37"><path d="M109.9.1H.6v36.2h109.3V.1z" fill="#fff"/></mask><g mask="url(#g)"><path d="M83.3 12.4c0 1.8-1.2 3.1-3 3.1s-2.9-1.2-2.9-2.9c0-1.8 1.2-3.1 3.1-3.1 1.7 0 2.8 1.2 2.8 2.9zm-4.3 0c0 1.6.5 2.5 1.4 2.5 1 0 1.4-.8 1.4-2.3 0-1.6-.6-2.5-1.6-2.5-.8 0-1.2.9-1.2 2.3z" fill="#231F20"/></g><mask id="h" style="mask-type:luminance" maskUnits="userSpaceOnUse" x="0" y="0" width="110" height="37"><path d="M109.9.1H.6v36.2h109.3V.1z" fill="#fff"/></mask><g mask="url(#h)"><path d="M90.1 12.4c0 1.8-1.2 3.1-3 3.1s-2.9-1.2-2.9-2.9c0-1.8 1.2-3.1 3.1-3.1 1.6 0 2.8 1.2 2.8 2.9zm-4.5 0c0 1.6.5 2.5 1.4 2.5 1 0 1.4-.8 1.4-2.3 0-1.6-.6-2.5-1.6-2.5-.7 0-1.2.9-1.2 2.3z" fill="#231F20"/></g><path d="M91.6 8.1l-1.1-.2v-.4l2.6-.5v7.6l.9.5v.2h-3.3v-.2l.9-.5V8.1z" fill="#231F20"/><mask id="i" style="mask-type:luminance" maskUnits="userSpaceOnUse" x="0" y="0" width="110" height="37"><path d="M109.9.1H.6v36.2h109.3V.1z" fill="#fff"/></mask><g mask="url(#i)"><path d="M49.8 26.2h.5l-.1 1.9c-1.3.4-1.9.4-2.7.4-2.4 0-3.9-1.4-3.9-3.9s1.7-4.2 4.3-4.2c.7 0 1.3.1 2.3.4v1.9h-.5l-.6-1.6h-.6c-2.2 0-3.3 1.4-3.3 3.5s1.2 3.3 3 3.3c.4 0 .6 0 .8-.1l.8-1.6z" fill="#231F20"/></g><mask id="j" style="mask-type:luminance" maskUnits="userSpaceOnUse" x="0" y="0" width="110" height="37"><path d="M109.9.1H.6v36.2h109.3V.1z" fill="#fff"/></mask><g mask="url(#j)"><path d="M52.1 23.5l-1-.2v-.4l2.4-.5v5.2l1 .4v.4H51V28l1-.4v-4.1h.1zm1.5-2.6c0 .5-.2.7-.8.7-.6 0-.8-.2-.8-.7 0-.5.2-.7.8-.7.6 0 .8.2.8.7z" fill="#231F20"/></g><mask id="k" style="mask-type:luminance" maskUnits="userSpaceOnUse" x="0" y="0" width="110" height="37"><path d="M109.9.1H.6v36.2h109.3V.1z" fill="#fff"/></mask><g mask="url(#k)"><path d="M54.3 23.2v-.4c.6-.2 1-.4 1.2-.6.2-.2.4-.5.7-1.1h.5v1.4h1.8v.6h-1.8v3.6c0 .7.5.8 1.1.8.1 0 .6 0 .7-.1l.1.5c-1.3.4-1.6.4-1.9.4-.8 0-1.4-.2-1.4-1.3v-4h-1v.2z" fill="#231F20"/></g><mask id="l" style="mask-type:luminance" maskUnits="userSpaceOnUse" x="0" y="0" width="110" height="37"><path d="M109.9.1H.6v36.2h109.3V.1z" fill="#fff"/></mask><g mask="url(#l)"><path d="M59.5 23.3l-.7-.2v-.4h3v.4l-.8.2 1 2.4c.1.4.2.8.4 1.1l1.2-3.4-.8-.4v-.4h2.3v.4l-.7.4-2.5 6.3c-.4 1-1 1.3-1.9 1.3-.4 0-.6 0-.8-.1v-1.1h1l.2.7c.5-.1.8-.4 1.1-1.2l.4-.8-2.4-5.2z" fill="#231F20"/></g><mask id="m" style="mask-type:luminance" maskUnits="userSpaceOnUse" x="0" y="0" width="110" height="37"><path d="M109.9.1H.6v36.2h109.3V.1z" fill="#fff"/></mask><g mask="url(#m)"><path d="M74.6 26.2h.5l-.1 1.9c-1.3.4-1.9.4-2.7.4-2.4 0-3.9-1.4-3.9-3.9s1.7-4.2 4.3-4.2c.7 0 1.3.1 2.3.4v1.9h-.5l-.6-1.6h-.6c-2.2 0-3.3 1.4-3.3 3.5s1.2 3.3 3 3.3c.4 0 .6 0 .8-.1l.8-1.6z" fill="#231F20"/></g><mask id="n" style="mask-type:luminance" maskUnits="userSpaceOnUse" x="0" y="0" width="110" height="37"><path d="M109.9.1H.6v36.2h109.3V.1z" fill="#fff"/></mask><g mask="url(#n)"><path d="M82 25.5c0 1.8-1.2 3.1-3 3.1s-2.9-1.2-2.9-2.9c0-1.8 1.2-3.1 3.1-3.1 1.6 0 2.8 1.2 2.8 2.9zm-4.5 0c0 1.6.5 2.5 1.4 2.5 1 0 1.4-.8 1.4-2.3 0-1.6-.6-2.5-1.6-2.5-.7 0-1.2.8-1.2 2.3z" fill="#231F20"/></g><mask id="o" style="mask-type:luminance" maskUnits="userSpaceOnUse" x="0" y="0" width="110" height="37"><path d="M109.9.1H.6v36.2h109.3V.1z" fill="#fff"/></mask><g mask="url(#o)"><path d="M86.8 27.9c-1.3.5-1.7.6-2.1.6-.7 0-1.4-.5-1.4-1.7v-3.3l-1-.2v-.4l2.4-.5v3.7c0 1 .4 1.3 1.2 1.3.4 0 .5 0 .8-.1v-4l-1-.2v-.4l2.4-.5v4.9l1 .2v.4l-2.4.5v-.3h.1z" fill="#231F20"/></g><mask id="p" style="mask-type:luminance" maskUnits="userSpaceOnUse" x="0" y="0" width="110" height="37"><path d="M109.9.1H.6v36.2h109.3V.1z" fill="#fff"/></mask><g mask="url(#p)"><path d="M92.2 27.6l.8.4v.4h-3.4V28l1-.4v-4.1l-1-.2v-.4l2.4-.5v.6c1.3-.6 1.6-.6 2.1-.6 1 0 1.4.6 1.4 1.7v3.4l1 .4v.4h-3.3v-.4l.7-.4v-3c0-.7-.4-1.2-1.1-1.2-.4 0-.6 0-1 .1v4.2h.4z" fill="#231F20"/></g><mask id="q" style="mask-type:luminance" maskUnits="userSpaceOnUse" x="0" y="0" width="110" height="37"><path d="M109.9.1H.6v36.2h109.3V.1z" fill="#fff"/></mask><g mask="url(#q)"><path d="M101.999 24.1h-1l-.6-1.1h-.1c-1 0-1.8 1-1.8 2.3 0 1.4.8 2.3 2.2 2.3.4 0 .6 0 1.1-.1l.1.5c-1.1.4-1.7.5-2.3.5-1.6 0-2.7-1.2-2.7-2.8 0-1.8 1.3-3.1 3.3-3.1.5 0 1 .1 1.7.2v1.3h.1z" fill="#231F20"/></g><mask id="r" style="mask-type:luminance" maskUnits="userSpaceOnUse" x="0" y="0" width="110" height="37"><path d="M109.9.1H.6v36.2h109.3V.1z" fill="#fff"/></mask><g mask="url(#r)"><path d="M103.799 23.5l-1-.2v-.4l2.4-.5v5.2l1 .4v.4h-3.5V28l1-.4v-4.1h.1zm1.6-2.6c0 .5-.2.7-.8.7-.6 0-.8-.2-.8-.7 0-.5.2-.7.8-.7.6 0 .8.2.8.7z" fill="#231F20"/></g><path d="M106.5 20.5v.4l1.1.2v6.5l-1.1.4v.4h3.5V28l-1-.4V20l-2.5.5z" fill="#231F20"/></svg>