<svg width="198" height="35" fill="none" xmlns="http://www.w3.org/2000/svg"><mask id="a" style="mask-type:luminance" maskUnits="userSpaceOnUse" x="0" y="0" width="198" height="35"><path d="M197.5.3H.4v34h197.1V.3z" fill="#fff"/></mask><g mask="url(#a)"><path d="M128.1 3.4c-.1-.8-.9-1.5-1.8-1.5-1.6 0-2.2 1.4-2.2 2.8s.6 2.7 2.2 2.7c1.1 0 1.7-.8 1.8-1.8h1.7c-.2 2-1.6 3.3-3.6 3.3-2.5 0-4-1.9-4-4.2 0-2.4 1.5-4.3 4-4.3 1.8 0 3.3 1 3.5 2.9h-1.6v.1z" fill="#231F20"/></g><mask id="b" style="mask-type:luminance" maskUnits="userSpaceOnUse" x="0" y="0" width="198" height="35"><path d="M197.5.3H.4v34h197.1V.3z" fill="#fff"/></mask><g mask="url(#b)"><path d="M131 2.8h1.6v1.1c.3-.8 1.1-1.2 1.9-1.2h.3v1.5h-.6c-1.1 0-1.6.9-1.6 1.9v2.6H131V2.8z" fill="#231F20"/></g><mask id="c" style="mask-type:luminance" maskUnits="userSpaceOnUse" x="0" y="0" width="198" height="35"><path d="M197.5.3H.4v34h197.1V.3z" fill="#fff"/></mask><g mask="url(#c)"><path d="M139.1 5.2c-.1-.8-.5-1.2-1.2-1.2-1 0-1.4.8-1.4 1.2h2.6zm-2.6 1c0 1 .6 1.5 1.5 1.5.7 0 1.1-.5 1.2-.8h1.5c-.5 1.4-1.5 1.9-2.7 1.9-1.8 0-3.1-1.2-3.1-3.1 0-1.8 1.2-3.1 3.1-3.1 2 0 2.9 1.7 2.8 3.5h-4.3v.1z" fill="#231F20"/></g><mask id="d" style="mask-type:luminance" maskUnits="userSpaceOnUse" x="0" y="0" width="198" height="35"><path d="M197.5.3H.4v34h197.1V.3z" fill="#fff"/></mask><g mask="url(#d)"><path d="M145.3 5.9c-.2.2-.8.2-1.4.3-.5.1-.9.2-.9.9 0 .6.5.8 1 .8 1.2 0 1.4-1 1.4-1.4v-.7h-.1v.1zm-3.7-1.3c.1-1.5 1.5-1.9 2.7-1.9 1.1 0 2.6.2 2.6 1.7v3.1c0 .6 0 1 .2 1.4h-1.6c0-.2-.1-.3-.1-.6-.6.6-1.2.7-1.9.7-1.1 0-2-.6-2-1.8 0-1.4 1-1.7 2-1.8 1-.1 1.9-.1 1.9-.8 0-.7-.5-.8-1-.8-.6 0-1 .2-1 .9h-1.8v-.1z" fill="#231F20"/></g><mask id="e" style="mask-type:luminance" maskUnits="userSpaceOnUse" x="0" y="0" width="198" height="35"><path d="M197.5.3H.4v34h197.1V.3z" fill="#fff"/></mask><g mask="url(#e)"><path d="M150.301 2.8h1.1v1.1h-1.1v2.9c0 .6.1.7.7.7h.5v1.2h-.9c-1 0-1.8-.2-1.8-1.4V3.8h-1V2.7h1V1h1.6v1.8h-.1z" fill="#231F20"/></g><path d="M152.301 8.7h1.6V2.8h-1.6v5.9zm0-6.8h1.6V.5h-1.6v1.4zM158.401 8.7h-1.7l-2.1-5.9h1.7l1.3 4.1 1.2-4.1h1.6l-2 5.9z" fill="#231F20"/><mask id="f" style="mask-type:luminance" maskUnits="userSpaceOnUse" x="0" y="0" width="198" height="35"><path d="M197.5.3H.4v34h197.1V.3z" fill="#fff"/></mask><g mask="url(#f)"><path d="M165.1 5.2c-.1-.8-.5-1.2-1.2-1.2-1 0-1.4.8-1.4 1.2h2.6zm-2.6 1c0 1 .6 1.5 1.5 1.5.7 0 1.1-.5 1.2-.8h1.5c-.5 1.4-1.5 1.9-2.7 1.9-1.8 0-3.1-1.2-3.1-3.1 0-1.8 1.2-3.1 3.1-3.1 2 0 2.9 1.7 2.8 3.5h-4.3v.1z" fill="#231F20"/></g><mask id="g" style="mask-type:luminance" maskUnits="userSpaceOnUse" x="0" y="0" width="198" height="35"><path d="M197.5.3H.4v34h197.1V.3z" fill="#fff"/></mask><g mask="url(#g)"><path d="M126.301 19.1c1.6 0 2.2-1.4 2.2-2.7 0-1.5-.6-2.8-2.2-2.8s-2.2 1.4-2.2 2.8c.1 1.4.6 2.7 2.2 2.7zm0-7c2.5 0 4 1.9 4 4.3s-1.5 4.2-4 4.2-4-1.9-4-4.2c0-2.4 1.5-4.3 4-4.3z" fill="#231F20"/></g><mask id="h" style="mask-type:luminance" maskUnits="userSpaceOnUse" x="0" y="0" width="198" height="35"><path d="M197.5.3H.4v34h197.1V.3z" fill="#fff"/></mask><g mask="url(#h)"><path d="M131.4 14.6h1.6v1.1c.3-.8 1.1-1.2 1.9-1.2h.3V16h-.6c-1.1 0-1.6.9-1.6 1.9v2.6h-1.6v-5.9z" fill="#231F20"/></g><mask id="i" style="mask-type:luminance" maskUnits="userSpaceOnUse" x="0" y="0" width="198" height="35"><path d="M197.5.3H.4v34h197.1V.3z" fill="#fff"/></mask><g mask="url(#i)"><path d="M139.9 17.4c0-.9-.3-1.8-1.4-1.8-.9 0-1.4.8-1.4 1.7 0 .8.3 1.8 1.4 1.8 1 0 1.4-.8 1.4-1.7zm1.6 2.7c0 1-.3 2.6-3.1 2.6-1.1 0-2.5-.6-2.6-1.9h1.6c.1.6.7.8 1.2.8.9 0 1.4-.6 1.2-1.5v-.8c-.3.6-1 .9-1.8.9-1.8 0-2.5-1.4-2.5-2.9s.9-2.9 2.5-2.9c.8 0 1.4.2 1.7.9v-.8h1.6v5.7h.2v-.1z" fill="#231F20"/></g><mask id="j" style="mask-type:luminance" maskUnits="userSpaceOnUse" x="0" y="0" width="198" height="35"><path d="M197.5.3H.4v34h197.1V.3z" fill="#fff"/></mask><g mask="url(#j)"><path d="M146.401 17.6c-.2.2-.8.2-1.4.3-.5.1-.9.2-.9.9 0 .6.5.8 1 .8 1.2 0 1.4-1 1.4-1.4v-.7h-.1v.1zm-3.7-1.2c.1-1.5 1.5-1.9 2.7-1.9 1.1 0 2.6.2 2.6 1.7v3.1c0 .6 0 1 .2 1.4h-1.6c0-.2-.1-.3-.1-.6-.6.6-1.2.7-1.9.7-1.1 0-2-.6-2-1.8 0-1.4 1-1.7 2-1.8 1-.1 1.9-.1 1.9-.8 0-.7-.5-.8-1-.8s-1 .2-1 .9h-1.8v-.1z" fill="#231F20"/></g><mask id="k" style="mask-type:luminance" maskUnits="userSpaceOnUse" x="0" y="0" width="198" height="35"><path d="M197.5.3H.4v34h197.1V.3z" fill="#fff"/></mask><g mask="url(#k)"><path d="M149.301 14.6h1.6v.8c.5-.7 1.1-1 1.8-1 1.7 0 2.2 1 2.2 2.4v3.6h-1.6v-3.3c0-1-.2-1.5-1-1.5-.9 0-1.2.5-1.2 1.7v3.1h-1.6v-5.8h-.2z" fill="#231F20"/></g><path d="M156.101 14.6h1.6v5.9h-1.6v-5.9zm1.6-.9h-1.6v-1.4h1.6v1.4z" fill="#231F20"/><mask id="l" style="mask-type:luminance" maskUnits="userSpaceOnUse" x="0" y="0" width="198" height="35"><path d="M197.5.3H.4v34h197.1V.3z" fill="#fff"/></mask><g mask="url(#l)"><path d="M160.201 18.6c0 .7.6 1 1.2 1 .5 0 1-.2 1-.8 0-.5-.7-.7-1.8-.9-.9-.2-1.8-.6-1.8-1.6 0-1.5 1.2-1.9 2.6-1.9 1.2 0 2.5.5 2.6 1.9h-1.6c0-.7-.6-.8-1.1-.8-.3 0-.9.1-.9.6 0 .6.9.7 1.8.9.9.2 1.8.6 1.8 1.7 0 1.6-1.4 2-2.7 2-1.3 0-2.7-.6-2.7-2h1.6v-.1z" fill="#231F20"/></g><mask id="m" style="mask-type:luminance" maskUnits="userSpaceOnUse" x="0" y="0" width="198" height="35"><path d="M197.5.3H.4v34h197.1V.3z" fill="#fff"/></mask><g mask="url(#m)"><path d="M168.701 17.6c-.2.2-.8.2-1.4.3-.5.1-.9.2-.9.9 0 .6.5.8 1 .8 1.2 0 1.4-1 1.4-1.4v-.7h-.1v.1zm-3.8-1.2c.1-1.5 1.5-1.9 2.7-1.9 1.1 0 2.6.2 2.6 1.7v3.1c0 .6 0 1 .2 1.4h-1.6c0-.2-.1-.3-.1-.6-.6.6-1.2.7-1.9.7-1.1 0-2-.6-2-1.8 0-1.4 1-1.7 2-1.8 1-.1 1.9-.1 1.9-.8 0-.7-.5-.8-1-.8s-1 .2-1 .9h-1.8v-.1z" fill="#231F20"/></g><mask id="n" style="mask-type:luminance" maskUnits="userSpaceOnUse" x="0" y="0" width="198" height="35"><path d="M197.5.3H.4v34h197.1V.3z" fill="#fff"/></mask><g mask="url(#n)"><path d="M173.7 14.6h1.1v1.1h-1.1v2.9c0 .6.1.7.7.7h.5v1.2c-.2 0-.7.1-.9.1-1 0-1.8-.2-1.8-1.4v-3.5h-1v-1.1h1v-1.9h1.6l-.1 1.9z" fill="#231F20"/></g><path d="M175.601 14.6h1.6v5.9h-1.6v-5.9zm1.7-.9h-1.6v-1.4h1.6v1.4z" fill="#231F20"/><mask id="o" style="mask-type:luminance" maskUnits="userSpaceOnUse" x="0" y="0" width="198" height="35"><path d="M197.5.3H.4v34h197.1V.3z" fill="#fff"/></mask><g mask="url(#o)"><path d="M181.401 19.5c1.1 0 1.5-.9 1.5-1.9 0-.9-.3-1.9-1.5-1.9-1.1 0-1.5.9-1.5 1.9.1.8.5 1.9 1.5 1.9zm0-5c1.8 0 3.1 1.2 3.1 3.1 0 1.9-1.2 3.1-3.1 3.1-1.9 0-3.1-1.2-3.1-3.1 0-2 1.3-3.1 3.1-3.1z" fill="#231F20"/></g><mask id="p" style="mask-type:luminance" maskUnits="userSpaceOnUse" x="0" y="0" width="198" height="35"><path d="M197.5.3H.4v34h197.1V.3z" fill="#fff"/></mask><g mask="url(#p)"><path d="M185.5 14.6h1.6v.8c.5-.7 1.1-1 1.8-1 1.7 0 2.2 1 2.2 2.4v3.6h-1.6v-3.3c0-1-.3-1.5-1-1.5-.9 0-1.2.5-1.2 1.7v3.1h-1.6v-5.8h-.2z" fill="#231F20"/></g><mask id="q" style="mask-type:luminance" maskUnits="userSpaceOnUse" x="0" y="0" width="198" height="35"><path d="M197.5.3H.4v34h197.1V.3z" fill="#fff"/></mask><g mask="url(#q)"><path d="M193.5 18.6c0 .7.6 1 1.2 1 .5 0 1-.2 1-.8 0-.5-.7-.7-1.8-.9-.9-.2-1.8-.6-1.8-1.6 0-1.5 1.2-1.9 2.6-1.9 1.2 0 2.5.5 2.6 1.9h-1.6c0-.7-.6-.8-1.1-.8-.3 0-.9.1-.9.6 0 .6.9.7 1.8.9.9.2 1.8.6 1.8 1.7 0 1.6-1.4 2-2.7 2-1.3 0-2.7-.6-2.7-2h1.6v-.1z" fill="#231F20"/></g><mask id="r" style="mask-type:luminance" maskUnits="userSpaceOnUse" x="0" y="0" width="198" height="35"><path d="M197.5.3H.4v34h197.1V.3z" fill="#fff"/></mask><g mask="url(#r)"><path d="M125.401 29.1c1.1 0 1.5-.9 1.5-1.9 0-.9-.3-1.9-1.5-1.9s-1.5.9-1.5 1.9c0 1 .4 1.9 1.5 1.9zm0-5c1.8 0 3.1 1.2 3.1 3.1 0 1.9-1.2 3.1-3.1 3.1-1.9 0-3.1-1.2-3.1-3.1 0-1.9 1.3-3.1 3.1-3.1z" fill="#231F20"/></g><mask id="s" style="mask-type:luminance" maskUnits="userSpaceOnUse" x="0" y="0" width="198" height="35"><path d="M197.5.3H.4v34h197.1V.3z" fill="#fff"/></mask><g mask="url(#s)"><path d="M129.801 27.4h-1v-1.1h1v-.5c0-1 .7-1.8 1.9-1.8h.9v1.2h-.6c-.5 0-.6.2-.6.7v.5h1.1v1.1h-1.1v4.8h-1.6v-4.9z" fill="#231F20"/></g><path d="M136.601 24.1h1.8v6.6h4v1.6h-5.8v-8.2zM143.2 26.4h1.6v5.9h-1.6v-5.9zm1.7-.9h-1.6v-1.4h1.6v1.4zM149.301 32.3h-1.7l-2-5.9h1.7l1.2 3.9 1.3-3.9h1.6l-2.1 5.9z" fill="#231F20"/><mask id="t" style="mask-type:luminance" maskUnits="userSpaceOnUse" x="0" y="0" width="198" height="35"><path d="M197.5.3H.4v34h197.1V.3z" fill="#fff"/></mask><g mask="url(#t)"><path d="M156.001 28.6c-.1-.8-.5-1.2-1.2-1.2-1 0-1.4.8-1.4 1.2h2.6zm-2.6 1.1c0 1 .6 1.5 1.5 1.5.7 0 1.1-.5 1.2-.8h1.5c-.5 1.4-1.5 1.9-2.7 1.9-1.8 0-3.1-1.2-3.1-3.1 0-1.9 1.2-3.1 3.1-3.1 2 0 2.9 1.7 2.8 3.5h-4.3v.1z" fill="#231F20"/></g><mask id="u" style="mask-type:luminance" maskUnits="userSpaceOnUse" x="0" y="0" width="198" height="35"><path d="M197.5.3H.4v34h197.1V.3z" fill="#fff"/></mask><g mask="url(#u)"><path d="M158.601 26.4h1.6v1.1c.3-.8 1.1-1.2 1.9-1.2.1 0 .2 0 .3.1v1.5c-.1 0-.3-.1-.6-.1-1.1 0-1.6.9-1.6 1.9v2.6h-1.6v-5.9z" fill="#231F20"/></g><mask id="v" style="mask-type:luminance" maskUnits="userSpaceOnUse" x="0" y="0" width="198" height="35"><path d="M197.5.3H.4v34h197.1V.3z" fill="#fff"/></mask><g mask="url(#v)"><path d="M167.3 29.3c0-.9-.3-1.9-1.4-1.9-1.1 0-1.4.9-1.4 1.9 0 .9.3 1.8 1.4 1.8 1.1 0 1.4-.9 1.4-1.8zm-4.3-2.9h1.6v.8c.3-.7 1-.9 1.7-.9 1.8 0 2.7 1.5 2.7 3.2 0 1.6-.9 3.1-2.6 3.1-.7 0-1.4-.3-1.8-.9v2.7H163v-8z" fill="#231F20"/></g><mask id="w" style="mask-type:luminance" maskUnits="userSpaceOnUse" x="0" y="0" width="198" height="35"><path d="M197.5.3H.4v34h197.1V.3z" fill="#fff"/></mask><g mask="url(#w)"><path d="M172.8 31.1c1.1 0 1.5-.9 1.5-1.9 0-.9-.3-1.9-1.5-1.9-1.1 0-1.5.9-1.5 1.9.1 1 .4 1.9 1.5 1.9zm0-5c1.8 0 3.1 1.2 3.1 3.1 0 1.9-1.2 3.1-3.1 3.1-1.8 0-3.1-1.2-3.1-3.1 0-1.9 1.3-3.1 3.1-3.1z" fill="#231F20"/></g><mask id="x" style="mask-type:luminance" maskUnits="userSpaceOnUse" x="0" y="0" width="198" height="35"><path d="M197.5.3H.4v34h197.1V.3z" fill="#fff"/></mask><g mask="url(#x)"><path d="M179.8 31.1c1.1 0 1.5-.9 1.5-1.9 0-.9-.3-1.9-1.5-1.9-1.1 0-1.5.9-1.5 1.9 0 1 .4 1.9 1.5 1.9zm0-5c1.8 0 3.1 1.2 3.1 3.1 0 1.9-1.2 3.1-3.1 3.1-1.8 0-3.1-1.2-3.1-3.1 0-1.9 1.2-3.1 3.1-3.1z" fill="#231F20"/></g><path d="M185.5 24.1h-1.6v8.2h1.6v-8.2zM128.401 30.7h-6.1v1.7h6.1v-1.7z" fill="#231F20"/><mask id="y" style="mask-type:luminance" maskUnits="userSpaceOnUse" x="0" y="0" width="198" height="35"><path d="M197.5.3H.4v34h197.1V.3z" fill="#fff"/></mask><g mask="url(#y)"><path d="M23.6 24.2c-.1-.1-.1-.2-.2-.2h-.1c-.3.2-.7.5-1.1.7-.3.2-.7.5-1.1.7-1.1.6-2.5.8-4.1.8-2.5 0-4.6-1-6.3-2.8-1.7-1.9-2.5-4.1-2.5-6.7 0-2.5.9-4.8 2.6-6.6 1.8-1.9 3.9-2.8 6.3-2.8 1.5 0 2.9.3 4.3 1.1.3.2.7.5.9.6.2.2.6.3.9.6l.1.1s.1 0 .1-.1l3.5-5.4c.1-.2.1-.2 0-.3C23.7 1.6 20.3.5 16.8.5 12.3.5 8.4 2.1 5.1 5.3c-3.3 3.2-5 7-5 11.6 0 4.8 1.6 8.8 4.8 11.9 3.2 3.1 7.3 4.6 11.9 4.6 3.9 0 7.3-1.1 10.1-3.4.2-.2.2-.3.2-.3l-3.5-5.5z" fill="#231F20"/></g><mask id="z" style="mask-type:luminance" maskUnits="userSpaceOnUse" x="0" y="0" width="198" height="35"><path d="M197.5.3H.4v34h197.1V.3z" fill="#fff"/></mask><g mask="url(#z)"><path d="M49.7 23.4c-1.8 1.8-4 2.8-6.6 2.8-2.5 0-4.8-.9-6.6-2.8-1.8-1.8-2.7-4.1-2.7-6.6 0-2.6.9-4.9 2.7-6.7 1.8-1.9 4-2.8 6.6-2.8 2.5 0 4.8.9 6.6 2.8 1.8 1.8 2.7 4.1 2.7 6.7 0 2.5-.9 4.8-2.7 6.6zm5.4-18.6C51.8 1.7 47.8.3 43.2.3c-4.8 0-8.7 1.5-12 4.5-3.4 3.2-5.1 7.1-5.1 12 0 4.8 1.7 8.8 5.1 11.9 3.3 2.9 7.3 4.4 12 4.4s8.7-1.5 11.9-4.4c3.4-3.1 5.1-7.1 5.1-12 0-4.7-1.7-8.7-5.1-11.9z" fill="#231F20"/></g><mask id="A" style="mask-type:luminance" maskUnits="userSpaceOnUse" x="0" y="0" width="198" height="35"><path d="M197.5.3H.4v34h197.1V.3z" fill="#fff"/></mask><g mask="url(#A)"><path d="M77.1 15.6c-.9 1-1.9 1.6-3.4 1.6-1.4 0-2.5-.6-3.4-1.6-.8-1-1.2-2.3-1.2-3.9 0-1.5.5-2.8 1.2-3.9.9-1 2-1.6 3.4-1.6s2.5.6 3.3 1.6c.8 1 1.2 2.3 1.2 3.9.2 1.6-.2 2.9-1.1 3.9zm4.7-11.7C79.6 2 77 1 73.8 1s-5.9 1-8 2.9c-2.3 2-3.4 4.5-3.4 7.9 0 3.3 1.1 5.9 3.4 7.9 2.2 1.9 4.9 2.9 8 2.9 3.2 0 5.9-1 7.9-2.9 2.3-2 3.4-4.5 3.4-7.9.1-3.3-1.1-5.8-3.3-7.9z" fill="#231F20"/></g><mask id="B" style="mask-type:luminance" maskUnits="userSpaceOnUse" x="0" y="0" width="198" height="35"><path d="M197.5.3H.4v34h197.1V.3z" fill="#fff"/></mask><g mask="url(#B)"><path d="M107.7 26.4H95.8V1.1c0-.2 0-.2-.2-.2h-6.9c-.2 0-.2 0-.2.2v31.5c0 .2 0 .2.2.2h19.2c.2 0 .2 0 .2-.2v-5.9c-.2-.3-.2-.3-.4-.3z" fill="#231F20"/></g><mask id="C" style="mask-type:luminance" maskUnits="userSpaceOnUse" x="0" y="0" width="198" height="35"><path d="M197.5.3H.4v34h197.1V.3z" fill="#fff"/></mask><g mask="url(#C)"><path d="M84.9 25.8H62.6c-.2 0-.2 0-.2.2v6.9c0 .2 0 .2.2.2h22.2c.2 0 .2 0 .2-.2V26c.2-.2.2-.2-.1-.2z" fill="#231F20"/></g></svg>