<svg width="33" height="28" fill="none" xmlns="http://www.w3.org/2000/svg"><path d="M.6 25.2c.5-.9.9-1.7 1.4-2.5.9-1.6 1.9-3.2 2.7-4.8.3-.5.4-1.1.4-1.7C4.3 9 9 2.4 16.2 1.1c7.1-1.3 13.9 3.2 15.6 10.2 2.1 8.3-4.4 16.6-13 16.7-3.2 0-6-1-8.6-2.9-.3-.2-.7-.4-1.1-.4l-6.9.3c-.6.2-1 .2-1.6.2zm5.1-3c1.5-.1 2.9-.2 4.2-.2.5 0 1 .2 1.4.5 3.3 2.9 7.9 3.6 11.9 1.6 3.8-1.8 6.2-6 6-10.3-.4-6-5.5-10.4-11.7-10-5.7.4-10.4 5.6-9.7 11.4.2 2-.3 3.5-1.3 5.1-.3.4-.5.9-.8 1.3v.6z" fill="#000"/><path d="M11.6 10.6c0-1.9.7-3.2 2.3-4 .6-.4 1.1-.3 1.4.4.5.9 1 1.8 1.6 2.7.5.7.3 1.2-.4 1.6-1.7 1-1.8 1.3-.8 3.1.8 1.3 1.7 2.5 2.6 3.8.4.6.9.6 1.5.2 1.8-1 1.8-1 2.7.8.3.5.6 1.1.9 1.6.5 1 .2 1.9-.9 2.1-.8.1-1.8.1-2.6-.1s-1.7-.6-2.3-1.1c-3.3-2.8-5.3-6.3-6-10.6v-.5z" fill="#000"/></svg>