<svg width="34" height="27" fill="none" xmlns="http://www.w3.org/2000/svg"><path d="M1.1 4.6c5.2 2.9 10.3 5.9 15.5 8.8.3.2.6.2.9 0 2.8-1.7 5.7-3.3 8.5-5 2.3-1.4 4.7-2.8 7-4.1.3-.2.5-.4.4-.8V1.9c0-.6-.4-1-1-1.1H1.6c-.6.1-1 .5-1 1.1v1.7c0 .5.1.8.5 1zM21.9 14.6c-.2-.3-.4-.3-.7-.1-1.1.6-2.1 1.3-3.2 1.9-.6.3-1.1.3-1.7 0-.9-.5-1.9-1.1-2.8-1.6-.3-.2-.5-.1-.7.1C9 18.4 5.2 22 1.4 25.5l-.2.2c-.2.2-.2.4.1.5.3.1.5.1.8.1H31.8c.2 0 .4-.1.6-.2-.1-.2-.1-.4-.2-.5-3.5-3.6-6.9-7.3-10.3-11zM33.5 8c0-.2-.1-.4-.1-.5-.2 0-.4.1-.5.2-2.7 1.6-5.4 3.2-8.2 4.8-.7.4-.7.4-.2 1l8.4 9c.1.1.3.2.5.3.1-.2.2-.3.2-.5v-7.1c-.1-2.5-.1-4.8-.1-7.2zM10.2 13.5c.3-.3.3-.4-.1-.7-3-1.7-5.9-3.4-8.9-5.1-.5-.3-.6-.2-.6.4v13.5c0 .1.1.3.2.4.1-.1.3-.1.4-.2 3-2.7 6-5.5 9-8.3z" fill="#000"/></svg>